<?xml version="1.0" encoding="UTF-8" standalone="no"?><!-- Generator: Gravit.io --><svg xmlns="http://www.w3.org/2000/svg" xmlns:xlink="http://www.w3.org/1999/xlink" style="isolation:isolate" viewBox="0 0 1280 700" width="1280pt" height="700pt"><defs><clipPath id="_clipPath_c9kB3h5SYTlOMafCLGQRPVUhJxcLRoze"><rect width="1280" height="700"/></clipPath></defs><g clip-path="url(#_clipPath_c9kB3h5SYTlOMafCLGQRPVUhJxcLRoze)"><clipPath id="_clipPath_52W7Ilsnxm5UGR8sLuHVlhN6Pdyukafi"><path d=" M 268 -25 L 1012 -25 L 1012 719 L 268 719 L 268 -25 Z " fill="rgb(255,255,255)"/></clipPath><g clip-path="url(#_clipPath_52W7Ilsnxm5UGR8sLuHVlhN6Pdyukafi)"><path d=" M 424.934 186.367 L 424.821 186.367 C 416.711 186.322 412.656 178.822 412.656 163.866 L 412.656 162.084 C 412.937 145.984 417.552 137.777 426.503 137.463 L 426.532 137.463 C 429.484 137.463 431.96 138.596 433.959 140.86 L 431.717 148.461 C 430.54 147.004 428.895 146.276 426.783 146.276 C 425.176 146.276 423.831 146.712 422.748 147.587 C 421.346 149.268 420.429 151.994 420 155.76 C 419.907 156.702 419.832 157.684 419.776 158.703 C 419.72 159.723 419.692 160.817 419.692 161.983 C 419.692 163.193 419.72 164.449 419.776 165.75 C 419.832 167.051 419.907 168.418 420 169.853 C 420.617 174.898 422.448 177.533 425.494 177.757 C 427.792 177.757 429.802 177.062 431.521 175.672 L 433.903 183.206 C 431.922 185.314 428.933 186.367 424.934 186.367 Z " fill="rgb(0,0,0)"/><path d=" M 424.934 186.367 L 424.821 186.367 C 416.711 186.322 412.656 178.822 412.656 163.866 L 412.656 162.084 C 412.937 145.984 417.552 137.777 426.503 137.463 L 426.532 137.463 C 429.484 137.463 431.96 138.596 433.959 140.86 L 431.717 148.461 C 430.54 147.004 428.895 146.276 426.783 146.276 C 425.176 146.276 423.831 146.712 422.748 147.587 C 421.346 149.268 420.429 151.994 420 155.76 C 419.907 156.702 419.832 157.684 419.776 158.703 C 419.72 159.723 419.692 160.817 419.692 161.983 C 419.692 163.193 419.72 164.449 419.776 165.75 C 419.832 167.051 419.907 168.418 420 169.853 C 420.617 174.898 422.448 177.533 425.494 177.757 C 427.792 177.757 429.802 177.062 431.521 175.672 L 433.903 183.206 C 431.922 185.314 428.933 186.367 424.934 186.367 Z " fill="none" vector-effect="non-scaling-stroke" stroke-width="2" stroke="rgb(35,31,32)" stroke-linejoin="miter" stroke-linecap="butt" stroke-miterlimit="3" style="mix-blend-mode:source-over;"/><path d=" M 476.377 148.09 L 476.517 163.594 C 479.507 163.528 481.665 162.294 482.993 159.895 C 483.759 158.438 484.142 156.857 484.142 155.152 C 484.142 154.031 483.973 152.81 483.637 151.486 C 482.964 148.998 481.376 147.753 478.872 147.753 C 478.498 147.753 478.105 147.781 477.694 147.837 C 477.283 147.893 476.844 147.977 476.377 148.09 Z  M 470.042 187.34 C 470.116 178.662 470.168 170.506 470.197 162.872 C 470.224 155.237 470.238 148.022 470.238 141.228 C 472.724 140.646 475.19 140.353 477.639 140.353 C 478.536 140.353 479.428 140.388 480.315 140.454 C 481.203 140.522 482.104 140.633 483.02 140.791 C 487.243 141.531 489.729 144.266 490.476 148.998 C 490.813 151.351 490.982 153.504 490.982 155.455 C 490.982 157.496 490.785 159.301 490.393 160.871 C 489.645 164.01 487.701 166.566 484.562 168.539 L 490.982 186.466 L 484.675 188.989 L 478.788 171.229 L 476.461 171.364 L 476.545 186.936 L 470.042 187.34 Z " fill="rgb(0,0,0)"/><path d=" M 476.377 148.09 L 476.517 163.594 C 479.507 163.528 481.665 162.294 482.993 159.895 C 483.759 158.438 484.142 156.857 484.142 155.152 C 484.142 154.031 483.973 152.81 483.637 151.486 C 482.964 148.998 481.376 147.753 478.872 147.753 C 478.498 147.753 478.105 147.781 477.694 147.837 C 477.283 147.893 476.844 147.977 476.377 148.09 Z  M 470.042 187.34 C 470.116 178.662 470.168 170.506 470.197 162.872 C 470.224 155.237 470.238 148.022 470.238 141.228 C 472.724 140.646 475.19 140.353 477.639 140.353 C 478.536 140.353 479.428 140.388 480.315 140.454 C 481.203 140.522 482.104 140.633 483.02 140.791 C 487.243 141.531 489.729 144.266 490.476 148.998 C 490.813 151.351 490.982 153.504 490.982 155.455 C 490.982 157.496 490.785 159.301 490.393 160.871 C 489.645 164.01 487.701 166.566 484.562 168.539 L 490.982 186.466 L 484.675 188.989 L 478.788 171.229 L 476.461 171.364 L 476.545 186.936 L 470.042 187.34 Z " fill-rule="evenodd" fill="none" vector-effect="non-scaling-stroke" stroke-width="2" stroke="rgb(35,31,32)" stroke-linejoin="miter" stroke-linecap="butt" stroke-miterlimit="3" style="mix-blend-mode:source-over;"/><path d=" M 531.381 139.296 L 531.69 147.368 L 521.178 148.041 L 521.178 160.956 L 529.812 160.116 L 530.259 167.582 L 521.458 168.558 L 521.458 179.624 L 531.998 178.951 L 532.167 186.72 L 514.674 188.032 L 514.674 164.32 C 514.674 156.473 514.665 148.569 514.647 140.609 L 531.381 139.296 Z " fill="rgb(0,0,0)"/><path d=" M 531.381 139.296 L 531.69 147.368 L 521.178 148.041 L 521.178 160.956 L 529.812 160.116 L 530.259 167.582 L 521.458 168.558 L 521.458 179.624 L 531.998 178.951 L 532.167 186.72 L 514.674 188.032 L 514.674 164.32 C 514.674 156.473 514.665 148.569 514.647 140.609 L 531.381 139.296 Z " fill="none" vector-effect="non-scaling-stroke" stroke-width="2" stroke="rgb(35,31,32)" stroke-linejoin="miter" stroke-linecap="butt" stroke-miterlimit="3" style="mix-blend-mode:source-over;"/><path d=" M 573.245 169.836 L 580.029 169.297 L 576.273 148.848 L 573.245 169.836 Z  M 581.487 139.33 L 590.063 186.956 L 583.477 187.561 L 581.431 176.664 L 572.096 177.438 L 570.583 187.998 L 563.743 187.191 L 570.387 139.868 L 581.487 139.33 Z " fill="rgb(0,0,0)"/><path d=" M 573.245 169.836 L 580.029 169.297 L 576.273 148.848 L 573.245 169.836 Z  M 581.487 139.33 L 590.063 186.956 L 583.477 187.561 L 581.431 176.664 L 572.096 177.438 L 570.583 187.998 L 563.743 187.191 L 570.387 139.868 L 581.487 139.33 Z " fill-rule="evenodd" fill="none" vector-effect="non-scaling-stroke" stroke-width="2" stroke="rgb(35,31,32)" stroke-linejoin="miter" stroke-linecap="butt" stroke-miterlimit="3" style="mix-blend-mode:source-over;"/><path d=" M 630.597 139.363 L 631.017 147.133 L 624.15 147.604 L 624.29 187.83 L 616.834 187.965 C 616.983 181.955 617.1 176.193 617.184 170.677 C 617.268 165.161 617.31 159.802 617.31 154.599 L 617.31 151.169 C 617.31 150.048 617.3 148.915 617.282 147.771 L 609.405 148.074 L 609.405 140.406 L 630.597 139.363 Z " fill="rgb(0,0,0)"/><path d=" M 630.597 139.363 L 631.017 147.133 L 624.15 147.604 L 624.29 187.83 L 616.834 187.965 C 616.983 181.955 617.1 176.193 617.184 170.677 C 617.268 165.161 617.31 159.802 617.31 154.599 L 617.31 151.169 C 617.31 150.048 617.3 148.915 617.282 147.771 L 609.405 148.074 L 609.405 140.406 L 630.597 139.363 Z " fill="none" vector-effect="non-scaling-stroke" stroke-width="2" stroke="rgb(35,31,32)" stroke-linejoin="miter" stroke-linecap="butt" stroke-miterlimit="3" style="mix-blend-mode:source-over;"/><path d=" M 662.151 139.767 C 662.133 141.943 662.119 144.129 662.11 146.325 C 662.1 148.523 662.095 150.743 662.095 152.986 C 662.095 158.478 662.128 164.04 662.194 169.667 C 662.259 175.295 662.358 181.059 662.488 186.956 L 655.424 187.561 C 655.479 181.754 655.509 175.711 655.509 169.432 C 655.509 160.081 655.453 150.306 655.34 140.103 L 662.151 139.767 Z " fill="rgb(0,0,0)"/><path d=" M 662.151 139.767 C 662.133 141.943 662.119 144.129 662.11 146.325 C 662.1 148.523 662.095 150.743 662.095 152.986 C 662.095 158.478 662.128 164.04 662.194 169.667 C 662.259 175.295 662.358 181.059 662.488 186.956 L 655.424 187.561 C 655.479 181.754 655.509 175.711 655.509 169.432 C 655.509 160.081 655.453 150.306 655.34 140.103 L 662.151 139.767 Z " fill="none" vector-effect="non-scaling-stroke" stroke-width="2" stroke="rgb(35,31,32)" stroke-linejoin="miter" stroke-linecap="butt" stroke-miterlimit="3" style="mix-blend-mode:source-over;"/><path d=" M 691.801 187.729 L 684.849 140.406 L 691.689 139.599 L 697.408 178.95 L 702.032 139.733 L 709.265 140.608 L 702.929 187.258 L 691.801 187.729 Z " fill="rgb(0,0,0)"/><path d=" M 691.801 187.729 L 684.849 140.406 L 691.689 139.599 L 697.408 178.95 L 702.032 139.733 L 709.265 140.608 L 702.929 187.258 L 691.801 187.729 Z " fill="none" vector-effect="non-scaling-stroke" stroke-width="2" stroke="rgb(35,31,32)" stroke-linejoin="miter" stroke-linecap="butt" stroke-miterlimit="3" style="mix-blend-mode:source-over;"/><path d=" M 739.467 139.767 C 739.449 141.943 739.435 144.129 739.426 146.325 C 739.416 148.523 739.411 150.743 739.411 152.986 C 739.411 158.478 739.444 164.04 739.51 169.667 C 739.575 175.295 739.674 181.059 739.804 186.956 L 732.74 187.561 C 732.795 181.754 732.825 175.711 732.825 169.432 C 732.825 160.081 732.769 150.306 732.656 140.103 L 739.467 139.767 Z " fill="rgb(0,0,0)"/><path d=" M 739.467 139.767 C 739.449 141.943 739.435 144.129 739.426 146.325 C 739.416 148.523 739.411 150.743 739.411 152.986 C 739.411 158.478 739.444 164.04 739.51 169.667 C 739.575 175.295 739.674 181.059 739.804 186.956 L 732.74 187.561 C 732.795 181.754 732.825 175.711 732.825 169.432 C 732.825 160.081 732.769 150.306 732.656 140.103 L 739.467 139.767 Z " fill="none" vector-effect="non-scaling-stroke" stroke-width="2" stroke="rgb(35,31,32)" stroke-linejoin="miter" stroke-linecap="butt" stroke-miterlimit="3" style="mix-blend-mode:source-over;"/><path d=" M 783.727 139.363 L 784.146 147.133 L 777.28 147.604 L 777.419 187.83 L 769.963 187.965 C 770.113 181.955 770.229 176.193 770.313 170.677 C 770.398 165.161 770.441 159.802 770.441 154.599 L 770.441 151.169 C 770.441 150.048 770.43 148.915 770.411 147.771 L 762.536 148.074 L 762.536 140.406 L 783.727 139.363 Z " fill="rgb(0,0,0)"/><path d=" M 783.727 139.363 L 784.146 147.133 L 777.28 147.604 L 777.419 187.83 L 769.963 187.965 C 770.113 181.955 770.229 176.193 770.313 170.677 C 770.398 165.161 770.441 159.802 770.441 154.599 L 770.441 151.169 C 770.441 150.048 770.43 148.915 770.411 147.771 L 762.536 148.074 L 762.536 140.406 L 783.727 139.363 Z " fill="none" vector-effect="non-scaling-stroke" stroke-width="2" stroke="rgb(35,31,32)" stroke-linejoin="miter" stroke-linecap="butt" stroke-miterlimit="3" style="mix-blend-mode:source-over;"/><path d=" M 819.847 140.087 L 824.893 159.023 L 829.796 139.919 L 837.253 141.095 C 836.039 144.527 834.693 148.607 833.217 153.339 C 831.74 158.07 830.124 163.507 828.368 169.652 L 828.536 186.972 L 821.387 187.41 L 821.275 170.29 C 820.154 166.277 818.879 161.848 817.449 157.005 C 816.02 152.162 814.399 146.858 812.586 141.095 L 819.847 140.087 Z " fill="rgb(0,0,0)"/><path d=" M 819.847 140.087 L 824.893 159.023 L 829.796 139.919 L 837.253 141.095 C 836.039 144.527 834.693 148.607 833.217 153.339 C 831.74 158.07 830.124 163.507 828.368 169.652 L 828.536 186.972 L 821.387 187.41 L 821.275 170.29 C 820.154 166.277 818.879 161.848 817.449 157.005 C 816.02 152.162 814.399 146.858 812.586 141.095 L 819.847 140.087 Z " fill="none" vector-effect="non-scaling-stroke" stroke-width="2" stroke="rgb(35,31,32)" stroke-linejoin="miter" stroke-linecap="butt" stroke-miterlimit="3" style="mix-blend-mode:source-over;"/><path d=" M 443.504 198.481 C 443.485 200.477 443.471 202.484 443.462 204.5 C 443.452 206.518 443.448 208.556 443.448 210.613 C 443.448 215.656 443.48 220.762 443.547 225.927 C 443.611 231.093 443.71 236.383 443.84 241.796 L 436.777 242.351 C 436.832 237.021 436.861 231.474 436.861 225.711 C 436.861 217.128 436.805 208.154 436.692 198.79 L 443.504 198.481 Z " fill="rgb(0,0,0)"/><path d=" M 443.504 198.481 C 443.485 200.477 443.471 202.484 443.462 204.5 C 443.452 206.518 443.448 208.556 443.448 210.613 C 443.448 215.656 443.48 220.762 443.547 225.927 C 443.611 231.093 443.71 236.383 443.84 241.796 L 436.777 242.351 C 436.832 237.021 436.861 231.474 436.861 225.711 C 436.861 217.128 436.805 208.154 436.692 198.79 L 443.504 198.481 Z " fill="none" vector-effect="non-scaling-stroke" stroke-width="2" stroke="rgb(35,31,32)" stroke-linejoin="miter" stroke-linecap="butt" stroke-miterlimit="3" style="mix-blend-mode:source-over;"/><path d=" M 469.51 235.668 C 469.546 235.688 469.612 235.699 469.706 235.699 C 472.19 235.699 473.621 234.34 473.994 231.623 L 473.994 231.067 C 473.994 228.33 471.733 225.767 467.211 223.38 C 462.259 220.89 459.735 217.072 459.642 211.926 C 459.624 211.823 459.615 211.669 459.615 211.462 C 459.615 206.585 460.801 203.065 463.174 200.904 C 465.285 198.95 467.744 197.971 470.546 197.971 L 471.163 197.971 C 471.368 197.971 471.574 197.982 471.781 198.002 C 475.611 198.126 478.442 199.444 480.273 201.954 L 478.059 208.066 C 476.564 206.502 474.667 205.648 472.368 205.505 C 469.528 205.505 467.79 206.256 467.155 207.757 C 466.725 208.746 466.511 209.714 466.511 210.66 C 466.511 211.524 466.678 212.42 467.015 213.347 C 467.65 215.343 469.818 217.247 473.518 219.057 C 477.218 220.849 479.488 223.154 480.33 225.974 C 480.815 227.64 481.059 229.256 481.059 230.82 C 481.059 231.932 480.927 233.064 480.666 234.216 C 480.068 236.912 478.741 239.023 476.685 240.546 C 474.611 242.089 471.967 242.861 468.753 242.861 C 468.659 242.861 468.593 242.851 468.557 242.83 C 464.52 242.789 461.343 241.698 459.026 239.558 L 461.913 232.827 C 464.436 234.679 466.968 235.626 469.51 235.668 Z " fill="rgb(0,0,0)"/><path d=" M 469.51 235.668 C 469.546 235.688 469.612 235.699 469.706 235.699 C 472.19 235.699 473.621 234.34 473.994 231.623 L 473.994 231.067 C 473.994 228.33 471.733 225.767 467.211 223.38 C 462.259 220.89 459.735 217.072 459.642 211.926 C 459.624 211.823 459.615 211.669 459.615 211.462 C 459.615 206.585 460.801 203.065 463.174 200.904 C 465.285 198.95 467.744 197.971 470.546 197.971 L 471.163 197.971 C 471.368 197.971 471.574 197.982 471.781 198.002 C 475.611 198.126 478.442 199.444 480.273 201.954 L 478.059 208.066 C 476.564 206.502 474.667 205.648 472.368 205.505 C 469.528 205.505 467.79 206.256 467.155 207.757 C 466.725 208.746 466.511 209.714 466.511 210.66 C 466.511 211.524 466.678 212.42 467.015 213.347 C 467.65 215.343 469.818 217.247 473.518 219.057 C 477.218 220.849 479.488 223.154 480.33 225.974 C 480.815 227.64 481.059 229.256 481.059 230.82 C 481.059 231.932 480.927 233.064 480.666 234.216 C 480.068 236.912 478.741 239.023 476.685 240.546 C 474.611 242.089 471.967 242.861 468.753 242.861 C 468.659 242.861 468.593 242.851 468.557 242.83 C 464.52 242.789 461.343 241.698 459.026 239.558 L 461.913 232.827 C 464.436 234.679 466.968 235.626 469.51 235.668 Z " fill="none" vector-effect="non-scaling-stroke" stroke-width="2" stroke="rgb(35,31,32)" stroke-linejoin="miter" stroke-linecap="butt" stroke-miterlimit="3" style="mix-blend-mode:source-over;"/><path d=" M 420.617 255.248 C 420.597 257.431 420.583 259.625 420.574 261.829 C 420.565 264.034 420.561 266.262 420.561 268.511 C 420.561 274.023 420.593 279.602 420.659 285.248 C 420.724 290.896 420.822 296.678 420.953 302.595 L 413.89 303.202 C 413.945 297.375 413.974 291.313 413.974 285.013 C 413.974 275.63 413.917 265.822 413.805 255.585 L 420.617 255.248 Z " fill="rgb(0,0,0)"/><path d=" M 420.617 255.248 C 420.597 257.431 420.583 259.625 420.574 261.829 C 420.565 264.034 420.561 266.262 420.561 268.511 C 420.561 274.023 420.593 279.602 420.659 285.248 C 420.724 290.896 420.822 296.678 420.953 302.595 L 413.89 303.202 C 413.945 297.375 413.974 291.313 413.974 285.013 C 413.974 275.63 413.917 265.822 413.805 255.585 L 420.617 255.248 Z " fill="none" vector-effect="non-scaling-stroke" stroke-width="2" stroke="rgb(35,31,32)" stroke-linejoin="miter" stroke-linecap="butt" stroke-miterlimit="3" style="mix-blend-mode:source-over;"/><path d=" M 447.589 302.713 C 447.626 298.551 447.659 294.456 447.687 290.429 C 447.716 286.402 447.729 282.376 447.729 278.348 C 447.729 274.321 447.716 270.361 447.687 266.469 C 447.659 262.577 447.626 258.708 447.589 254.86 L 455.494 254.658 L 463.511 283.544 C 463.454 277.987 463.427 272.577 463.427 267.312 C 463.427 265.198 463.431 263.105 463.441 261.036 C 463.45 258.966 463.464 256.884 463.483 254.792 L 470.463 254.86 C 470.369 262.668 470.299 270.462 470.253 278.246 C 470.206 286.031 470.183 293.894 470.183 301.836 L 462.53 302.544 L 454.261 273.218 L 454.289 302.004 L 447.589 302.713 Z " fill="rgb(0,0,0)"/><path d=" M 447.589 302.713 C 447.626 298.551 447.659 294.456 447.687 290.429 C 447.716 286.402 447.729 282.376 447.729 278.348 C 447.729 274.321 447.716 270.361 447.687 266.469 C 447.659 262.577 447.626 258.708 447.589 254.86 L 455.494 254.658 L 463.511 283.544 C 463.454 277.987 463.427 272.577 463.427 267.312 C 463.427 265.198 463.431 263.105 463.441 261.036 C 463.45 258.966 463.464 256.884 463.483 254.792 L 470.463 254.86 C 470.369 262.668 470.299 270.462 470.253 278.246 C 470.206 286.031 470.183 293.894 470.183 301.836 L 462.53 302.544 L 454.261 273.218 L 454.289 302.004 L 447.589 302.713 Z " fill="none" vector-effect="non-scaling-stroke" stroke-width="2" stroke="rgb(35,31,32)" stroke-linejoin="miter" stroke-linecap="butt" stroke-miterlimit="3" style="mix-blend-mode:source-over;"/><path d=" M 515.04 253.578 L 515.46 261.374 L 508.593 261.846 L 508.733 302.206 L 501.277 302.342 C 501.427 296.312 501.544 290.53 501.628 284.996 C 501.711 279.461 501.754 274.085 501.754 268.864 L 501.754 265.422 C 501.754 264.298 501.744 263.161 501.725 262.014 L 493.849 262.318 L 493.849 254.624 L 515.04 253.578 Z " fill="rgb(0,0,0)"/><path d=" M 515.04 253.578 L 515.46 261.374 L 508.593 261.846 L 508.733 302.206 L 501.277 302.342 C 501.427 296.312 501.544 290.53 501.628 284.996 C 501.711 279.461 501.754 274.085 501.754 268.864 L 501.754 265.422 C 501.754 264.298 501.744 263.161 501.725 262.014 L 493.849 262.318 L 493.849 254.624 L 515.04 253.578 Z " fill="none" vector-effect="non-scaling-stroke" stroke-width="2" stroke="rgb(35,31,32)" stroke-linejoin="miter" stroke-linecap="butt" stroke-miterlimit="3" style="mix-blend-mode:source-over;"/><path d=" M 555.182 253.51 L 555.491 261.609 L 544.978 262.284 L 544.978 275.243 L 553.612 274.399 L 554.06 281.891 L 545.258 282.869 L 545.258 293.972 L 555.798 293.297 L 555.967 301.093 L 538.475 302.408 L 538.475 278.618 C 538.475 270.744 538.466 262.813 538.447 254.826 L 555.182 253.51 Z " fill="rgb(0,0,0)"/><path d=" M 555.182 253.51 L 555.491 261.609 L 544.978 262.284 L 544.978 275.243 L 553.612 274.399 L 554.06 281.891 L 545.258 282.869 L 545.258 293.972 L 555.798 293.297 L 555.967 301.093 L 538.475 302.408 L 538.475 278.618 C 538.475 270.744 538.466 262.813 538.447 254.826 L 555.182 253.51 Z " fill="none" vector-effect="non-scaling-stroke" stroke-width="2" stroke="rgb(35,31,32)" stroke-linejoin="miter" stroke-linecap="butt" stroke-miterlimit="3" style="mix-blend-mode:source-over;"/><path d=" M 583.369 254.641 C 583.256 262.111 583.201 269.31 583.201 276.239 C 583.201 279.388 583.215 282.455 583.243 285.434 C 583.271 288.416 583.303 291.369 583.341 294.293 L 593.543 293.618 L 593.712 301.413 L 576.22 302.73 L 576.22 278.938 C 576.22 271.065 576.212 263.134 576.193 255.147 L 583.369 254.641 Z " fill="rgb(0,0,0)"/><path d=" M 583.369 254.641 C 583.256 262.111 583.201 269.31 583.201 276.239 C 583.201 279.388 583.215 282.455 583.243 285.434 C 583.271 288.416 583.303 291.369 583.341 294.293 L 593.543 293.618 L 593.712 301.413 L 576.22 302.73 L 576.22 278.938 C 576.22 271.065 576.212 263.134 576.193 255.147 L 583.369 254.641 Z " fill="none" vector-effect="non-scaling-stroke" stroke-width="2" stroke="rgb(35,31,32)" stroke-linejoin="miter" stroke-linecap="butt" stroke-miterlimit="3" style="mix-blend-mode:source-over;"/><path d=" M 618.878 253.915 C 618.765 261.384 618.71 268.584 618.71 275.513 C 618.71 278.663 618.724 281.728 618.751 284.709 C 618.78 287.69 618.812 290.644 618.85 293.568 L 629.052 292.893 L 629.221 300.687 L 611.729 302.004 L 611.729 278.212 C 611.729 270.34 611.72 262.408 611.702 254.422 L 618.878 253.915 Z " fill="rgb(0,0,0)"/><path d=" M 618.878 253.915 C 618.765 261.384 618.71 268.584 618.71 275.513 C 618.71 278.663 618.724 281.728 618.751 284.709 C 618.78 287.69 618.812 290.644 618.85 293.568 L 629.052 292.893 L 629.221 300.687 L 611.729 302.004 L 611.729 278.212 C 611.729 270.34 611.72 262.408 611.702 254.422 L 618.878 253.915 Z " fill="none" vector-effect="non-scaling-stroke" stroke-width="2" stroke="rgb(35,31,32)" stroke-linejoin="miter" stroke-linecap="butt" stroke-miterlimit="3" style="mix-blend-mode:source-over;"/><path d=" M 651.128 253.983 C 651.109 256.165 651.096 258.359 651.087 260.563 C 651.077 262.768 651.072 264.996 651.072 267.245 C 651.072 272.757 651.104 278.337 651.171 283.984 C 651.236 289.63 651.334 295.412 651.465 301.329 L 644.401 301.936 C 644.456 296.109 644.485 290.047 644.485 283.747 C 644.485 274.366 644.429 264.557 644.316 254.32 L 651.128 253.983 Z " fill="rgb(0,0,0)"/><path d=" M 651.128 253.983 C 651.109 256.165 651.096 258.359 651.087 260.563 C 651.077 262.768 651.072 264.996 651.072 267.245 C 651.072 272.757 651.104 278.337 651.171 283.984 C 651.236 289.63 651.334 295.412 651.465 301.329 L 644.401 301.936 C 644.456 296.109 644.485 290.047 644.485 283.747 C 644.485 274.366 644.429 264.557 644.316 254.32 L 651.128 253.983 Z " fill="none" vector-effect="non-scaling-stroke" stroke-width="2" stroke="rgb(35,31,32)" stroke-linejoin="miter" stroke-linecap="butt" stroke-miterlimit="3" style="mix-blend-mode:source-over;"/><path d=" M 694.479 264.225 C 692.721 262.92 690.797 262.267 688.705 262.267 C 687.938 262.267 687.199 262.346 686.489 262.504 C 683.574 263.111 681.788 266.205 681.136 271.784 C 681.059 273.111 681.004 274.444 680.967 275.783 C 680.929 277.122 680.912 278.5 680.912 279.916 C 680.912 281.087 680.943 282.269 681.01 283.461 C 681.074 284.652 681.172 285.868 681.304 287.105 C 681.809 292.28 683.435 294.866 686.181 294.866 C 688.853 294.866 690.189 291.661 690.189 285.249 C 690.189 284.935 690.185 284.619 690.175 284.303 C 690.166 283.989 690.151 283.652 690.133 283.292 L 684.668 283.832 L 684.555 276.812 L 696.945 276.206 C 696.982 277.06 697.01 277.909 697.029 278.752 C 697.047 279.596 697.057 280.412 697.057 281.2 C 697.057 289.344 696.094 295.013 694.169 298.207 C 692.469 301.065 689.815 302.494 686.209 302.494 C 685.592 302.494 684.957 302.453 684.303 302.375 C 683.648 302.297 682.966 302.179 682.257 302.021 C 676.763 300.784 674.016 292.932 674.016 278.466 L 674.016 277.149 C 674.184 261.83 678.285 253.921 686.321 253.426 C 690.34 253.426 693.599 254.326 696.104 256.126 L 694.479 264.225 Z " fill="rgb(0,0,0)"/><path d=" M 694.479 264.225 C 692.721 262.92 690.797 262.267 688.705 262.267 C 687.938 262.267 687.199 262.346 686.489 262.504 C 683.574 263.111 681.788 266.205 681.136 271.784 C 681.059 273.111 681.004 274.444 680.967 275.783 C 680.929 277.122 680.912 278.5 680.912 279.916 C 680.912 281.087 680.943 282.269 681.01 283.461 C 681.074 284.652 681.172 285.868 681.304 287.105 C 681.809 292.28 683.435 294.866 686.181 294.866 C 688.853 294.866 690.189 291.661 690.189 285.249 C 690.189 284.935 690.185 284.619 690.175 284.303 C 690.166 283.989 690.151 283.652 690.133 283.292 L 684.668 283.832 L 684.555 276.812 L 696.945 276.206 C 696.982 277.06 697.01 277.909 697.029 278.752 C 697.047 279.596 697.057 280.412 697.057 281.2 C 697.057 289.344 696.094 295.013 694.169 298.207 C 692.469 301.065 689.815 302.494 686.209 302.494 C 685.592 302.494 684.957 302.453 684.303 302.375 C 683.648 302.297 682.966 302.179 682.257 302.021 C 676.763 300.784 674.016 292.932 674.016 278.466 L 674.016 277.149 C 674.184 261.83 678.285 253.921 686.321 253.426 C 690.34 253.426 693.599 254.326 696.104 256.126 L 694.479 264.225 Z " fill="none" vector-effect="non-scaling-stroke" stroke-width="2" stroke="rgb(35,31,32)" stroke-linejoin="miter" stroke-linecap="butt" stroke-miterlimit="3" style="mix-blend-mode:source-over;"/><path d=" M 747.779 253.51 L 748.088 261.609 L 737.575 262.284 L 737.575 275.243 L 746.21 274.399 L 746.657 281.891 L 737.856 282.869 L 737.856 293.972 L 748.396 293.297 L 748.564 301.093 L 731.072 302.408 L 731.072 278.618 C 731.072 270.744 731.062 262.813 731.045 254.826 L 747.779 253.51 Z " fill="rgb(0,0,0)"/><path d=" M 747.779 253.51 L 748.088 261.609 L 737.575 262.284 L 737.575 275.243 L 746.21 274.399 L 746.657 281.891 L 737.856 282.869 L 737.856 293.972 L 748.396 293.297 L 748.564 301.093 L 731.072 302.408 L 731.072 278.618 C 731.072 270.744 731.062 262.813 731.045 254.826 L 747.779 253.51 Z " fill="none" vector-effect="non-scaling-stroke" stroke-width="2" stroke="rgb(35,31,32)" stroke-linejoin="miter" stroke-linecap="butt" stroke-miterlimit="3" style="mix-blend-mode:source-over;"/><path d=" M 772.71 301.987 C 772.748 297.825 772.781 293.731 772.808 289.703 C 772.836 285.677 772.851 281.65 772.851 277.622 C 772.851 273.595 772.836 269.636 772.808 265.744 C 772.781 261.851 772.748 257.981 772.71 254.135 L 780.615 253.933 L 788.631 282.819 C 788.575 277.262 788.548 271.852 788.548 266.586 C 788.548 264.473 788.553 262.38 788.562 260.311 C 788.57 258.241 788.584 256.159 788.605 254.067 L 795.583 254.135 C 795.49 261.942 795.419 269.737 795.373 277.52 C 795.326 285.306 795.303 293.168 795.303 301.11 L 787.652 301.819 L 779.382 272.493 L 779.41 301.279 L 772.71 301.987 Z " fill="rgb(0,0,0)"/><path d=" M 772.71 301.987 C 772.748 297.825 772.781 293.731 772.808 289.703 C 772.836 285.677 772.851 281.65 772.851 277.622 C 772.851 273.595 772.836 269.636 772.808 265.744 C 772.781 261.851 772.748 257.981 772.71 254.135 L 780.615 253.933 L 788.631 282.819 C 788.575 277.262 788.548 271.852 788.548 266.586 C 788.548 264.473 788.553 262.38 788.562 260.311 C 788.57 258.241 788.584 256.159 788.605 254.067 L 795.583 254.135 C 795.49 261.942 795.419 269.737 795.373 277.52 C 795.326 285.306 795.303 293.168 795.303 301.11 L 787.652 301.819 L 779.382 272.493 L 779.41 301.279 L 772.71 301.987 Z " fill="none" vector-effect="non-scaling-stroke" stroke-width="2" stroke="rgb(35,31,32)" stroke-linejoin="miter" stroke-linecap="butt" stroke-miterlimit="3" style="mix-blend-mode:source-over;"/><path d=" M 837.197 302.494 L 837.084 302.494 C 828.975 302.449 824.92 294.924 824.92 279.916 L 824.92 278.129 C 825.2 261.975 829.815 253.741 838.766 253.426 L 838.796 253.426 C 841.747 253.426 844.223 254.562 846.222 256.834 L 843.98 264.461 C 842.803 263 841.159 262.267 839.046 262.267 C 837.44 262.267 836.095 262.707 835.011 263.584 C 833.609 265.271 832.694 268.004 832.263 271.784 C 832.17 272.729 832.096 273.714 832.039 274.737 C 831.983 275.76 831.957 276.858 831.957 278.026 C 831.957 279.242 831.983 280.502 832.039 281.806 C 832.096 283.112 832.17 284.484 832.263 285.923 C 832.88 290.986 834.712 293.63 837.757 293.855 C 840.056 293.855 842.065 293.157 843.785 291.762 L 846.166 299.321 C 844.187 301.436 841.196 302.494 837.197 302.494 Z " fill="rgb(0,0,0)"/><path d=" M 837.197 302.494 L 837.084 302.494 C 828.975 302.449 824.92 294.924 824.92 279.916 L 824.92 278.129 C 825.2 261.975 829.815 253.741 838.766 253.426 L 838.796 253.426 C 841.747 253.426 844.223 254.562 846.222 256.834 L 843.98 264.461 C 842.803 263 841.159 262.267 839.046 262.267 C 837.44 262.267 836.095 262.707 835.011 263.584 C 833.609 265.271 832.694 268.004 832.263 271.784 C 832.17 272.729 832.096 273.714 832.039 274.737 C 831.983 275.76 831.957 276.858 831.957 278.026 C 831.957 279.242 831.983 280.502 832.039 281.806 C 832.096 283.112 832.17 284.484 832.263 285.923 C 832.88 290.986 834.712 293.63 837.757 293.855 C 840.056 293.855 842.065 293.157 843.785 291.762 L 846.166 299.321 C 844.187 301.436 841.196 302.494 837.197 302.494 Z " fill="none" vector-effect="non-scaling-stroke" stroke-width="2" stroke="rgb(35,31,32)" stroke-linejoin="miter" stroke-linecap="butt" stroke-miterlimit="3" style="mix-blend-mode:source-over;"/><path d=" M 891.174 253.51 L 891.483 261.609 L 880.971 262.284 L 880.971 275.243 L 889.605 274.399 L 890.052 281.891 L 881.251 282.869 L 881.251 293.972 L 891.791 293.297 L 891.96 301.093 L 874.467 302.408 L 874.467 278.618 C 874.467 270.744 874.457 262.813 874.44 254.826 L 891.174 253.51 Z " fill="rgb(0,0,0)"/><path d=" M 891.174 253.51 L 891.483 261.609 L 880.971 262.284 L 880.971 275.243 L 889.605 274.399 L 890.052 281.891 L 881.251 282.869 L 881.251 293.972 L 891.791 293.297 L 891.96 301.093 L 874.467 302.408 L 874.467 278.618 C 874.467 270.744 874.457 262.813 874.44 254.826 L 891.174 253.51 Z " fill="none" vector-effect="non-scaling-stroke" stroke-width="2" stroke="rgb(35,31,32)" stroke-linejoin="miter" stroke-linecap="butt" stroke-miterlimit="3" style="mix-blend-mode:source-over;"/><path d=" M 443.721 311.555 L 443.834 330.171 L 451.373 329.662 L 451.346 311.646 L 458.269 311.914 L 458.1 353.636 L 451.486 353.904 L 451.486 336.486 L 443.721 337.204 L 443.721 353.546 L 436.994 354.085 C 437.049 348.918 437.078 343.54 437.078 337.953 C 437.078 329.632 437.022 320.933 436.909 311.855 L 443.721 311.555 Z " fill="rgb(0,0,0)"/><path d=" M 443.721 311.555 L 443.834 330.171 L 451.373 329.662 L 451.346 311.646 L 458.269 311.914 L 458.1 353.636 L 451.486 353.904 L 451.486 336.486 L 443.721 337.204 L 443.721 353.546 L 436.994 354.085 C 437.049 348.918 437.078 343.54 437.078 337.953 C 437.078 329.632 437.022 320.933 436.909 311.855 L 443.721 311.555 Z " fill="none" vector-effect="non-scaling-stroke" stroke-width="2" stroke="rgb(35,31,32)" stroke-linejoin="miter" stroke-linecap="butt" stroke-miterlimit="3" style="mix-blend-mode:source-over;"/><path d=" M 490.191 338.312 L 496.974 337.833 L 493.218 319.636 L 490.191 338.312 Z  M 498.432 311.165 L 507.009 353.546 L 500.422 354.085 L 498.376 344.388 L 489.041 345.076 L 487.528 354.475 L 480.689 353.756 L 487.332 311.645 L 498.432 311.165 Z " fill="rgb(0,0,0)"/><path d=" M 490.191 338.312 L 496.974 337.833 L 493.218 319.636 L 490.191 338.312 Z  M 498.432 311.165 L 507.009 353.546 L 500.422 354.085 L 498.376 344.388 L 489.041 345.076 L 487.528 354.475 L 480.689 353.756 L 487.332 311.645 L 498.432 311.165 Z " fill-rule="evenodd" fill="none" vector-effect="non-scaling-stroke" stroke-width="2" stroke="rgb(35,31,32)" stroke-linejoin="miter" stroke-linecap="butt" stroke-miterlimit="3" style="mix-blend-mode:source-over;"/><path d=" M 527.292 354.923 L 520.34 312.812 L 527.18 312.093 L 532.898 347.111 L 537.523 312.214 L 544.755 312.991 L 538.42 354.504 L 527.292 354.923 Z " fill="rgb(0,0,0)"/><path d=" M 527.292 354.923 L 520.34 312.812 L 527.18 312.093 L 532.898 347.111 L 537.523 312.214 L 544.755 312.991 L 538.42 354.504 L 527.292 354.923 Z " fill="none" vector-effect="non-scaling-stroke" stroke-width="2" stroke="rgb(35,31,32)" stroke-linejoin="miter" stroke-linecap="butt" stroke-miterlimit="3" style="mix-blend-mode:source-over;"/><path d=" M 566.98 313.037 C 566.961 314.972 566.947 316.917 566.938 318.873 C 566.929 320.829 566.924 322.804 566.924 324.799 C 566.924 329.687 566.956 334.635 567.023 339.644 C 567.087 344.652 567.186 349.781 567.317 355.027 L 560.253 355.566 C 560.309 350.398 560.337 345.022 560.337 339.435 C 560.337 331.114 560.281 322.415 560.168 313.336 L 566.98 313.037 Z " fill="rgb(0,0,0)"/><path d=" M 566.98 313.037 C 566.961 314.972 566.947 316.917 566.938 318.873 C 566.929 320.829 566.924 322.804 566.924 324.799 C 566.924 329.687 566.956 334.635 567.023 339.644 C 567.087 344.652 567.186 349.781 567.317 355.027 L 560.253 355.566 C 560.309 350.398 560.337 345.022 560.337 339.435 C 560.337 331.114 560.281 322.415 560.168 313.336 L 566.98 313.037 Z " fill="none" vector-effect="non-scaling-stroke" stroke-width="2" stroke="rgb(35,31,32)" stroke-linejoin="miter" stroke-linecap="butt" stroke-miterlimit="3" style="mix-blend-mode:source-over;"/><path d=" M 588.828 355.611 C 588.865 351.92 588.898 348.288 588.926 344.716 C 588.955 341.146 588.968 337.574 588.968 334.002 C 588.968 330.431 588.955 326.919 588.926 323.466 C 588.898 320.016 588.865 316.583 588.828 313.171 L 596.733 312.992 L 604.75 338.612 C 604.694 333.683 604.666 328.885 604.666 324.215 C 604.666 322.34 604.671 320.485 604.68 318.649 C 604.689 316.813 604.703 314.967 604.722 313.111 L 611.702 313.171 C 611.608 320.095 611.538 327.008 611.492 333.912 C 611.445 340.816 611.422 347.79 611.422 354.833 L 603.769 355.462 L 595.5 329.453 L 595.528 354.982 L 588.828 355.611 Z " fill="rgb(0,0,0)"/><path d=" M 588.828 355.611 C 588.865 351.92 588.898 348.288 588.926 344.716 C 588.955 341.146 588.968 337.574 588.968 334.002 C 588.968 330.431 588.955 326.919 588.926 323.466 C 588.898 320.016 588.865 316.583 588.828 313.171 L 596.733 312.992 L 604.75 338.612 C 604.694 333.683 604.666 328.885 604.666 324.215 C 604.666 322.34 604.671 320.485 604.68 318.649 C 604.689 316.813 604.703 314.967 604.722 313.111 L 611.702 313.171 C 611.608 320.095 611.538 327.008 611.492 333.912 C 611.445 340.816 611.422 347.79 611.422 354.833 L 603.769 355.462 L 595.5 329.453 L 595.528 354.982 L 588.828 355.611 Z " fill="none" vector-effect="non-scaling-stroke" stroke-width="2" stroke="rgb(35,31,32)" stroke-linejoin="miter" stroke-linecap="butt" stroke-miterlimit="3" style="mix-blend-mode:source-over;"/><path d=" M 653.259 322.12 C 651.502 320.963 649.578 320.384 647.485 320.384 C 646.719 320.384 645.979 320.454 645.27 320.593 C 642.355 321.133 640.569 323.876 639.916 328.824 C 639.84 330.002 639.785 331.184 639.747 332.371 C 639.711 333.558 639.692 334.78 639.692 336.037 C 639.692 337.075 639.724 338.123 639.791 339.18 C 639.855 340.238 639.953 341.315 640.084 342.413 C 640.589 347.002 642.215 349.296 644.961 349.296 C 647.634 349.296 648.97 346.453 648.97 340.766 C 648.97 340.487 648.966 340.207 648.957 339.928 C 648.946 339.649 648.932 339.349 648.914 339.03 L 643.448 339.509 L 643.335 333.284 L 655.725 332.745 C 655.763 333.504 655.79 334.256 655.81 335.005 C 655.828 335.753 655.837 336.477 655.837 337.175 C 655.837 344.398 654.875 349.427 652.95 352.259 C 651.249 354.794 648.596 356.06 644.99 356.06 C 644.373 356.06 643.737 356.025 643.084 355.955 C 642.429 355.886 641.747 355.782 641.037 355.642 C 635.543 354.544 632.796 347.581 632.796 334.75 L 632.796 333.583 C 632.964 319.995 637.065 312.982 645.102 312.542 C 649.12 312.542 652.38 313.342 654.884 314.937 L 653.259 322.12 Z " fill="rgb(0,0,0)"/><path d=" M 653.259 322.12 C 651.502 320.963 649.578 320.384 647.485 320.384 C 646.719 320.384 645.979 320.454 645.27 320.593 C 642.355 321.133 640.569 323.876 639.916 328.824 C 639.84 330.002 639.785 331.184 639.747 332.371 C 639.711 333.558 639.692 334.78 639.692 336.037 C 639.692 337.075 639.724 338.123 639.791 339.18 C 639.855 340.238 639.953 341.315 640.084 342.413 C 640.589 347.002 642.215 349.296 644.961 349.296 C 647.634 349.296 648.97 346.453 648.97 340.766 C 648.97 340.487 648.966 340.207 648.957 339.928 C 648.946 339.649 648.932 339.349 648.914 339.03 L 643.448 339.509 L 643.335 333.284 L 655.725 332.745 C 655.763 333.504 655.79 334.256 655.81 335.005 C 655.828 335.753 655.837 336.477 655.837 337.175 C 655.837 344.398 654.875 349.427 652.95 352.259 C 651.249 354.794 648.596 356.06 644.99 356.06 C 644.373 356.06 643.737 356.025 643.084 355.955 C 642.429 355.886 641.747 355.782 641.037 355.642 C 635.543 354.544 632.796 347.581 632.796 334.75 L 632.796 333.583 C 632.964 319.995 637.065 312.982 645.102 312.542 C 649.12 312.542 652.38 313.342 654.884 314.937 L 653.259 322.12 Z " fill="none" vector-effect="non-scaling-stroke" stroke-width="2" stroke="rgb(35,31,32)" stroke-linejoin="miter" stroke-linecap="butt" stroke-miterlimit="3" style="mix-blend-mode:source-over;"/><path d=" M 411.607 363.532 L 501.851 363.532 L 501.851 400.272 L 458.222 400.272 L 458.222 418.414 L 501.163 418.414 L 501.163 453.396 L 456.813 453.367 L 457.217 512.334 L 411.607 511.951 L 411.607 363.532 Z " fill="rgb(57,181,74)"/><path d=" M 443.711 489.813 C 443.711 494.495 439.914 498.292 435.232 498.292 C 430.549 498.292 426.752 494.495 426.752 489.813 C 426.752 485.13 430.549 481.333 435.232 481.333 C 439.914 481.333 443.711 485.13 443.711 489.813 Z " fill="rgb(255,242,0)"/><path d=" M 443.711 469.027 C 443.711 473.71 439.914 477.507 435.232 477.507 C 430.549 477.507 426.752 473.71 426.752 469.027 C 426.752 464.345 430.549 460.548 435.232 460.548 C 439.914 460.548 443.711 464.345 443.711 469.027 Z " fill="rgb(255,242,0)"/><path d=" M 443.711 447.271 C 443.711 451.955 439.914 455.751 435.232 455.751 C 430.549 455.751 426.752 451.955 426.752 447.271 C 426.752 442.589 430.549 438.792 435.232 438.792 C 439.914 438.792 443.711 442.589 443.711 447.271 Z " fill="rgb(255,242,0)"/><path d=" M 443.711 426.486 C 443.711 431.169 439.914 434.965 435.232 434.965 C 430.549 434.965 426.752 431.169 426.752 426.486 C 426.752 421.802 430.549 418.006 435.232 418.006 C 439.914 418.006 443.711 421.802 443.711 426.486 Z " fill="rgb(255,242,0)"/><path d=" M 442.439 402.66 C 442.439 407.344 438.642 411.141 433.96 411.141 C 429.277 411.141 425.48 407.344 425.48 402.66 C 425.48 397.977 429.277 394.181 433.96 394.181 C 438.642 394.181 442.439 397.977 442.439 402.66 Z " fill="rgb(255,242,0)"/><path d=" M 442.439 381.875 C 442.439 386.557 438.642 390.354 433.96 390.354 C 429.277 390.354 425.48 386.557 425.48 381.875 C 425.48 377.192 429.277 373.395 433.96 373.395 C 438.642 373.395 442.439 377.192 442.439 381.875 Z " fill="rgb(255,242,0)"/><path d=" M 476.854 426.868 C 481.538 426.868 485.333 430.665 485.333 435.348 C 485.333 440.03 481.538 443.827 476.854 443.827 C 472.171 443.827 468.375 440.03 468.375 435.348 C 468.375 430.665 472.171 426.868 476.854 426.868 Z " fill="rgb(255,242,0)"/><path d=" M 456.069 426.868 C 460.752 426.868 464.548 430.665 464.548 435.348 C 464.548 440.03 460.752 443.827 456.069 443.827 C 451.385 443.827 447.59 440.03 447.59 435.348 C 447.59 430.665 451.385 426.868 456.069 426.868 Z " fill="rgb(255,242,0)"/><path d=" M 476.472 373.395 C 481.155 373.395 484.951 377.192 484.951 381.875 C 484.951 386.558 481.155 390.354 476.472 390.354 C 471.789 390.354 467.993 386.558 467.993 381.875 C 467.993 377.192 471.789 373.395 476.472 373.395 Z " fill="rgb(255,242,0)"/><path d=" M 455.686 373.395 C 460.369 373.395 464.165 377.192 464.165 381.875 C 464.165 386.558 460.369 390.354 455.686 390.354 C 451.003 390.354 447.207 386.558 447.207 381.875 C 447.207 377.192 451.003 373.395 455.686 373.395 Z " fill="rgb(255,242,0)"/><path d=" M 590.153 513.71 C 580.509 513.71 570.635 512.483 562.827 510.036 C 555.02 507.588 550.922 504.748 545.146 500.161 C 539.683 495.823 537.153 493.859 532.401 487.303 C 528.584 480.192 526.775 470.999 526.775 460.895 L 526.775 363.531 L 572.242 363.531 L 572.242 458.828 C 572.546 463.25 574.412 465.116 577.868 467.668 C 580.762 469.807 584.946 469.621 590.153 469.621 C 595.355 469.621 596.773 470.503 598.994 467.668 C 601.211 464.838 601.991 462.713 602.324 458.828 L 602.324 363.531 L 649.167 363.531 L 649.167 460.895 C 649.167 470.999 645.807 479.989 642.394 487.303 C 640 492.433 634.426 498.131 628.386 502.457 C 623.973 505.618 617.434 508.362 611.738 510.036 C 606.464 511.585 598.284 513.71 590.153 513.71 Z " fill="rgb(57,181,74)"/><path d=" M 547.207 373.395 C 551.89 373.395 555.686 377.192 555.686 381.875 C 555.686 386.558 551.89 390.354 547.207 390.354 C 542.524 390.354 538.728 386.558 538.728 381.875 C 538.728 377.192 542.524 373.395 547.207 373.395 Z " fill="rgb(255,242,0)"/><path d=" M 547.207 394.182 C 551.89 394.182 555.686 397.978 555.686 402.661 C 555.686 407.344 551.89 411.141 547.207 411.141 C 542.524 411.141 538.728 407.344 538.728 402.661 C 538.728 397.978 542.524 394.182 547.207 394.182 Z " fill="rgb(255,242,0)"/><path d=" M 547.207 418.006 C 551.89 418.006 555.686 421.803 555.686 426.486 C 555.686 431.169 551.89 434.965 547.207 434.965 C 542.524 434.965 538.728 431.169 538.728 426.486 C 538.728 421.803 542.524 418.006 547.207 418.006 Z " fill="rgb(255,242,0)"/><path d=" M 547.207 438.792 C 551.89 438.792 555.686 442.589 555.686 447.271 C 555.686 451.955 551.89 455.752 547.207 455.752 C 542.524 455.752 538.728 451.955 538.728 447.271 C 538.728 442.589 542.524 438.792 547.207 438.792 Z " fill="rgb(255,242,0)"/><path d=" M 553.235 460.548 C 557.918 460.548 561.714 464.345 561.714 469.027 C 561.714 473.71 557.918 477.507 553.235 477.507 C 548.551 477.507 544.756 473.71 544.756 469.027 C 544.756 464.345 548.551 460.548 553.235 460.548 Z " fill="rgb(255,242,0)"/><path d=" M 566.169 477.507 C 570.852 477.507 574.648 481.303 574.648 485.986 C 574.648 490.669 570.852 494.466 566.169 494.466 C 561.485 494.466 557.69 490.669 557.69 485.986 C 557.69 481.303 561.485 477.507 566.169 477.507 Z " fill="rgb(255,242,0)"/><path d=" M 587.971 483.176 C 592.655 483.176 596.451 486.972 596.451 491.655 C 596.451 496.338 592.655 500.135 587.971 500.135 C 583.288 500.135 579.492 496.338 579.492 491.655 C 579.492 486.972 583.288 483.176 587.971 483.176 Z " fill="rgb(255,242,0)"/><path d=" M 609.892 477.507 C 614.576 477.507 618.372 481.303 618.372 485.986 C 618.372 490.669 614.576 494.466 609.892 494.466 C 605.209 494.466 601.413 490.669 601.413 485.986 C 601.413 481.303 605.209 477.507 609.892 477.507 Z " fill="rgb(255,242,0)"/><path d=" M 623.014 459.4 C 627.697 459.4 631.493 463.197 631.493 467.879 C 631.493 472.562 627.697 476.359 623.014 476.359 C 618.331 476.359 614.535 472.562 614.535 467.879 C 614.535 463.197 618.331 459.4 623.014 459.4 Z " fill="rgb(255,242,0)"/><path d=" M 625.703 438.792 C 630.386 438.792 634.182 442.589 634.182 447.271 C 634.182 451.955 630.386 455.752 625.703 455.752 C 621.02 455.752 617.224 451.955 617.224 447.271 C 617.224 442.589 621.02 438.792 625.703 438.792 Z " fill="rgb(255,242,0)"/><path d=" M 625.703 417.037 C 630.386 417.037 634.182 420.834 634.182 425.517 C 634.182 430.199 630.386 433.996 625.703 433.996 C 621.02 433.996 617.224 430.199 617.224 425.517 C 617.224 420.834 621.02 417.037 625.703 417.037 Z " fill="rgb(255,242,0)"/><path d=" M 625.703 395.282 C 630.386 395.282 634.182 399.079 634.182 403.762 C 634.182 408.444 630.386 412.241 625.703 412.241 C 621.02 412.241 617.224 408.444 617.224 403.762 C 617.224 399.079 621.02 395.282 625.703 395.282 Z " fill="rgb(255,242,0)"/><path d=" M 625.703 373.395 C 630.386 373.395 634.182 377.192 634.182 381.875 C 634.182 386.558 630.386 390.354 625.703 390.354 C 621.02 390.354 617.224 386.558 617.224 381.875 C 617.224 377.192 621.02 373.395 625.703 373.395 Z " fill="rgb(255,242,0)"/><path d=" M 679.905 362.383 L 724.683 362.383 L 766.935 429.435 L 765.786 362.383 L 812.631 362.383 L 812.631 510.954 L 771.068 509.806 L 725.601 442.983 L 725.601 510.954 L 679.905 510.954 L 679.905 362.383 Z " fill="rgb(57,181,74)"/><path d=" M 701.088 481.333 C 705.771 481.333 709.568 485.13 709.568 489.814 C 709.568 494.496 705.771 498.293 701.088 498.293 C 696.405 498.293 692.608 494.496 692.608 489.814 C 692.608 485.13 696.405 481.333 701.088 481.333 Z " fill="rgb(255,242,0)"/><path d=" M 701.088 459.4 C 705.771 459.4 709.568 463.197 709.568 467.879 C 709.568 472.562 705.771 476.359 701.088 476.359 C 696.405 476.359 692.608 472.562 692.608 467.879 C 692.608 463.197 696.405 459.4 701.088 459.4 Z " fill="rgb(255,242,0)"/><path d=" M 701.088 439.157 C 705.771 439.157 709.568 442.954 709.568 447.636 C 709.568 452.319 705.771 456.116 701.088 456.116 C 696.405 456.116 692.608 452.319 692.608 447.636 C 692.608 442.954 696.405 439.157 701.088 439.157 Z " fill="rgb(255,242,0)"/><path d=" M 701.088 417.222 C 705.771 417.222 709.568 421.019 709.568 425.702 C 709.568 430.384 705.771 434.181 701.088 434.181 C 696.405 434.181 692.608 430.384 692.608 425.702 C 692.608 421.019 696.405 417.222 701.088 417.222 Z " fill="rgb(255,242,0)"/><path d=" M 701.088 395.288 C 705.771 395.288 709.568 399.085 709.568 403.767 C 709.568 408.451 705.771 412.248 701.088 412.248 C 696.405 412.248 692.608 408.451 692.608 403.767 C 692.608 399.085 696.405 395.288 701.088 395.288 Z " fill="rgb(255,242,0)"/><path d=" M 701.088 373.355 C 705.771 373.355 709.568 377.152 709.568 381.834 C 709.568 386.517 705.771 390.314 701.088 390.314 C 696.405 390.314 692.608 386.517 692.608 381.834 C 692.608 377.152 696.405 373.355 701.088 373.355 Z " fill="rgb(255,242,0)"/><path d=" M 791.218 483.821 C 795.9 483.821 799.697 487.618 799.697 492.3 C 799.697 496.984 795.9 500.781 791.218 500.781 C 786.535 500.781 782.738 496.984 782.738 492.3 C 782.738 487.618 786.535 483.821 791.218 483.821 Z " fill="rgb(255,242,0)"/><path d=" M 791.218 461.887 C 795.9 461.887 799.697 465.684 799.697 470.367 C 799.697 475.049 795.9 478.846 791.218 478.846 C 786.535 478.846 782.738 475.049 782.738 470.367 C 782.738 465.684 786.535 461.887 791.218 461.887 Z " fill="rgb(255,242,0)"/><path d=" M 791.218 439.157 C 795.9 439.157 799.697 442.954 799.697 447.636 C 799.697 452.319 795.9 456.116 791.218 456.116 C 786.535 456.116 782.738 452.319 782.738 447.636 C 782.738 442.954 786.535 439.157 791.218 439.157 Z " fill="rgb(255,242,0)"/><path d=" M 791.218 417.222 C 795.9 417.222 799.697 421.019 799.697 425.702 C 799.697 430.384 795.9 434.181 791.218 434.181 C 786.535 434.181 782.738 430.384 782.738 425.702 C 782.738 421.019 786.535 417.222 791.218 417.222 Z " fill="rgb(255,242,0)"/><path d=" M 791.218 396.669 C 795.9 396.669 799.697 400.466 799.697 405.149 C 799.697 409.831 795.9 413.628 791.218 413.628 C 786.535 413.628 782.738 409.831 782.738 405.149 C 782.738 400.466 786.535 396.669 791.218 396.669 Z " fill="rgb(255,242,0)"/><path d=" M 791.218 374.735 C 795.9 374.735 799.697 378.532 799.697 383.214 C 799.697 387.897 795.9 391.694 791.218 391.694 C 786.535 391.694 782.738 387.897 782.738 383.214 C 782.738 378.532 786.535 374.735 791.218 374.735 Z " fill="rgb(255,242,0)"/><path d=" M 765.6 470.989 C 769.294 468.109 774.621 468.768 777.501 472.462 C 780.38 476.155 779.721 481.484 776.028 484.362 C 772.334 487.242 767.007 486.583 764.127 482.889 C 761.247 479.196 761.906 473.868 765.6 470.989 Z " fill="rgb(255,242,0)"/><path d=" M 753.262 450.246 C 756.956 447.366 762.283 448.026 765.163 451.72 C 768.042 455.413 767.383 460.741 763.689 463.619 C 759.996 466.5 754.668 465.84 751.789 462.146 C 748.909 458.453 749.568 453.125 753.262 450.246 Z " fill="rgb(255,242,0)"/><path d=" M 740.078 429.774 C 743.772 426.895 749.099 427.555 751.979 431.247 C 754.858 434.941 754.199 440.27 750.506 443.148 C 746.812 446.028 741.485 445.369 738.605 441.675 C 735.726 437.981 736.385 432.654 740.078 429.774 Z " fill="rgb(255,242,0)"/><path d=" M 726.592 409.032 C 730.286 406.153 735.613 406.812 738.493 410.506 C 741.372 414.199 740.712 419.528 737.02 422.406 C 733.326 425.286 727.999 424.626 725.119 420.933 C 722.239 417.239 722.898 411.912 726.592 409.032 Z " fill="rgb(255,242,0)"/><path d=" M 716.259 387.495 C 719.952 384.614 725.28 385.274 728.159 388.968 C 731.039 392.661 730.379 397.99 726.686 400.868 C 722.993 403.748 717.665 403.088 714.786 399.394 C 711.906 395.702 712.565 390.374 716.259 387.495 Z " fill="rgb(255,242,0)"/><path d=" M 568.886 572.813 C 568.755 572.813 568.68 572.711 568.662 572.504 C 568.643 572.3 568.708 572.178 568.858 572.14 L 575.362 572.113 C 575.491 572.113 575.585 572.15 575.642 572.224 C 575.698 572.3 575.721 572.384 575.712 572.477 C 575.703 572.571 575.669 572.649 575.613 572.714 C 575.558 572.781 575.491 572.813 575.417 572.813 L 568.886 572.813 Z " fill="rgb(0,0,0)"/><path d=" M 584.555 571.551 C 584.536 571.87 584.513 572.332 584.485 572.938 C 584.458 573.546 584.434 574.214 584.415 574.943 C 584.396 575.672 584.402 576.414 584.429 577.173 C 584.458 577.928 584.528 578.615 584.639 579.231 C 584.752 579.849 584.915 580.358 585.129 580.761 C 585.344 581.161 585.63 581.373 585.985 581.39 C 586.414 581.409 586.845 581.143 587.274 580.592 C 587.704 580.041 588.119 579.316 588.522 578.419 C 588.923 577.522 589.293 576.513 589.629 575.392 C 589.965 574.27 590.259 573.145 590.512 572.014 C 590.765 570.883 590.965 569.813 591.115 568.804 C 591.264 567.796 591.339 566.945 591.339 566.254 C 591.339 565.059 591.269 564.118 591.129 563.437 C 590.988 562.754 590.703 562.273 590.273 561.993 C 589.713 561.62 589.185 561.483 588.69 561.587 C 588.194 561.689 587.741 561.956 587.33 562.386 C 586.919 562.816 586.55 563.377 586.224 564.067 C 585.895 564.759 585.615 565.52 585.382 566.353 C 585.149 567.183 584.962 568.047 584.822 568.944 C 584.682 569.842 584.592 570.711 584.555 571.551 Z  M 591.815 567.88 C 591.497 570.477 591.091 572.692 590.596 574.523 C 590.101 576.355 589.573 577.844 589.012 578.993 C 588.452 580.143 587.882 580.965 587.303 581.46 C 586.723 581.956 586.181 582.156 585.677 582.063 C 585.284 582.007 584.962 581.783 584.709 581.39 C 584.458 580.998 584.256 580.513 584.106 579.933 C 583.957 579.354 583.855 578.7 583.799 577.971 C 583.742 577.242 583.718 576.5 583.729 575.741 C 583.738 574.986 583.761 574.253 583.799 573.541 C 583.835 572.832 583.873 572.197 583.91 571.635 C 583.948 571.094 584.023 570.398 584.135 569.548 C 584.246 568.697 584.411 567.814 584.625 566.898 C 584.84 565.983 585.116 565.09 585.452 564.222 C 585.788 563.351 586.2 562.623 586.685 562.036 C 587.171 561.445 587.737 561.068 588.382 560.9 C 589.026 560.731 589.769 560.891 590.61 561.377 C 591.002 561.6 591.297 561.909 591.492 562.301 C 591.689 562.694 591.838 563.142 591.941 563.646 C 592.044 564.152 592.114 564.694 592.152 565.272 C 592.188 565.852 592.244 566.432 592.32 567.011 C 592.45 567.983 592.61 569.052 592.797 570.221 C 592.983 571.387 593.197 572.593 593.441 573.835 C 593.684 575.079 593.955 576.336 594.254 577.606 C 594.553 578.878 594.88 580.101 595.235 581.279 C 595.254 581.353 595.235 581.419 595.179 581.475 C 595.123 581.53 595.062 581.569 594.997 581.586 C 594.931 581.606 594.857 581.61 594.773 581.601 C 594.689 581.591 594.627 581.559 594.59 581.502 C 594.254 580.475 593.96 579.432 593.707 578.376 C 593.455 577.321 593.222 576.237 593.007 575.125 C 592.791 574.014 592.591 572.86 592.404 571.664 C 592.217 570.469 592.021 569.207 591.815 567.88 Z " fill="rgb(0,0,0)"/><path d=" M 597.926 581.923 C 597.944 582.016 597.926 582.095 597.87 582.162 C 597.814 582.227 597.748 582.278 597.674 582.316 C 597.599 582.352 597.52 582.367 597.436 582.357 C 597.352 582.348 597.29 582.305 597.253 582.232 L 594.702 561.405 C 594.665 561.162 594.745 561.007 594.941 560.942 C 595.137 560.876 595.282 560.938 595.375 561.124 L 597.926 581.923 Z " fill="rgb(0,0,0)"/><path d=" M 601.178 580.858 C 601.14 580.821 601.126 580.765 601.135 580.69 C 601.144 580.616 601.168 580.541 601.205 580.465 C 601.243 580.392 601.295 580.33 601.36 580.283 C 601.425 580.237 601.487 580.223 601.542 580.241 C 602.158 580.952 602.747 581.345 603.307 581.418 C 603.869 581.494 604.373 581.358 604.822 581.012 C 605.27 580.666 605.649 580.157 605.957 579.485 C 606.265 578.812 606.484 578.074 606.615 577.27 C 606.69 576.804 606.737 576.271 606.755 575.672 C 606.775 575.075 606.751 574.467 606.685 573.85 C 606.62 573.233 606.509 572.627 606.349 572.029 C 606.19 571.43 605.971 570.898 605.691 570.43 C 605.411 569.964 605.064 569.593 604.653 569.323 C 604.242 569.053 603.747 568.917 603.167 568.917 C 602.644 568.917 602.201 569.117 601.837 569.519 C 601.472 569.922 601.173 570.435 600.939 571.062 C 600.706 571.688 600.528 572.397 600.407 573.192 C 600.286 573.986 600.205 574.785 600.168 575.588 C 600.168 575.775 600.187 576.107 600.225 576.582 C 600.261 577.06 600.309 577.565 600.365 578.096 C 600.421 578.63 600.477 579.13 600.532 579.596 C 600.589 580.064 600.636 580.392 600.674 580.578 C 600.729 580.784 600.654 580.937 600.449 581.04 C 600.243 581.143 600.103 581.129 600.028 580.998 L 597.617 561.236 C 597.543 560.975 597.603 560.811 597.8 560.746 C 597.996 560.68 598.15 560.732 598.263 560.9 L 599.776 574.186 C 599.832 573.776 599.902 573.238 599.986 572.575 C 600.071 571.911 600.234 571.266 600.477 570.64 C 600.72 570.015 601.065 569.473 601.514 569.015 C 601.963 568.557 602.569 568.31 603.336 568.272 C 604.158 568.235 604.854 568.478 605.425 569.001 C 605.994 569.524 606.438 570.211 606.755 571.062 C 607.073 571.911 607.274 572.883 607.358 573.977 C 607.443 575.069 607.419 576.158 607.288 577.242 C 607.177 578.121 606.924 578.947 606.531 579.722 C 606.139 580.498 605.658 581.101 605.088 581.531 C 604.518 581.96 603.892 582.152 603.21 582.106 C 602.528 582.059 601.85 581.643 601.178 580.858 Z " fill="rgb(0,0,0)"/><path d=" M 614.941 565.273 C 614.959 564.899 614.945 564.47 614.898 563.983 C 614.851 563.498 614.758 563.049 614.618 562.638 C 614.478 562.228 614.282 561.895 614.03 561.643 C 613.778 561.39 613.455 561.292 613.062 561.348 C 612.595 561.405 612.198 561.675 611.872 562.161 C 611.545 562.648 611.274 563.227 611.059 563.899 C 610.843 564.572 610.675 565.297 610.554 566.072 C 610.432 566.847 610.344 567.562 610.287 568.215 C 610.251 568.627 610.246 569.197 610.274 569.926 C 610.301 570.654 610.362 571.43 610.456 572.252 C 611.222 572.179 611.88 571.86 612.432 571.299 C 612.983 570.739 613.441 570.089 613.805 569.351 C 614.17 568.613 614.445 567.866 614.632 567.108 C 614.819 566.352 614.921 565.74 614.941 565.273 Z  M 609.643 568.075 C 609.662 567.795 609.7 567.422 609.755 566.955 C 609.811 566.489 609.895 565.987 610.007 565.455 C 610.12 564.921 610.264 564.376 610.442 563.814 C 610.619 563.254 610.829 562.75 611.073 562.301 C 611.315 561.852 611.595 561.479 611.913 561.181 C 612.231 560.882 612.595 560.722 613.006 560.704 C 613.604 560.686 614.085 560.848 614.451 561.194 C 614.815 561.54 615.09 561.969 615.277 562.484 C 615.464 562.998 615.576 563.554 615.614 564.151 C 615.65 564.75 615.641 565.283 615.586 565.749 C 615.51 566.404 615.356 567.105 615.123 567.851 C 614.889 568.599 614.567 569.314 614.156 569.996 C 613.744 570.678 613.245 571.285 612.656 571.817 C 612.068 572.351 611.39 572.711 610.624 572.897 C 610.773 573.907 611.003 574.93 611.31 575.965 C 611.619 577.004 612.021 577.927 612.516 578.742 C 613.011 579.553 613.609 580.185 614.311 580.634 C 615.011 581.083 615.838 581.223 616.791 581.054 C 617.052 580.998 617.285 580.918 617.492 580.816 C 617.696 580.713 617.893 580.597 618.08 580.465 C 618.38 580.261 618.561 580.241 618.626 580.41 C 618.692 580.577 618.631 580.765 618.445 580.97 C 618.239 581.194 618.001 581.363 617.73 581.474 C 617.459 581.587 617.136 581.67 616.763 581.727 C 615.698 581.877 614.767 581.704 613.974 581.209 C 613.18 580.713 612.502 580.031 611.942 579.162 C 611.38 578.294 610.933 577.294 610.596 576.163 C 610.26 575.032 610.007 573.907 609.84 572.785 C 609.371 572.636 608.946 572.328 608.564 571.86 C 608.181 571.393 607.867 570.808 607.625 570.109 C 607.381 569.407 607.218 568.595 607.135 567.669 C 607.05 566.745 607.065 565.74 607.176 564.656 C 607.176 564.6 607.218 564.534 607.302 564.46 C 607.386 564.386 607.471 564.343 607.555 564.335 C 607.639 564.324 607.713 564.352 607.779 564.417 C 607.844 564.484 607.858 564.61 607.821 564.796 C 607.69 565.544 607.634 566.297 607.652 567.052 C 607.671 567.81 607.76 568.509 607.919 569.156 C 608.077 569.799 608.307 570.369 608.605 570.864 C 608.905 571.36 609.269 571.719 609.7 571.944 C 609.624 571.234 609.587 570.538 609.587 569.855 C 609.587 569.173 609.605 568.58 609.643 568.075 Z " fill="rgb(0,0,0)"/><path d=" M 619.23 563.647 C 619.099 564.17 619.146 564.619 619.37 564.992 C 619.594 565.367 619.912 565.67 620.323 565.904 C 620.734 566.137 621.196 566.309 621.711 566.422 C 622.224 566.534 622.705 566.59 623.154 566.59 C 623.509 566.59 623.953 566.562 624.486 566.506 C 625.019 566.449 625.546 566.329 626.069 566.142 C 626.593 565.956 627.051 565.707 627.442 565.399 C 627.835 565.09 628.078 564.684 628.171 564.18 C 628.246 563.731 628.092 563.33 627.709 562.974 C 627.325 562.619 626.826 562.33 626.209 562.105 C 625.593 561.881 624.906 561.732 624.149 561.657 C 623.392 561.582 622.673 561.596 621.991 561.7 C 621.309 561.802 620.711 562.012 620.196 562.33 C 619.683 562.648 619.361 563.087 619.23 563.647 Z  M 619.313 565.973 L 620.239 582.652 C 620.163 582.894 620.033 582.993 619.846 582.947 C 619.659 582.9 619.547 582.801 619.51 582.652 C 619.417 580.653 619.327 578.657 619.243 576.668 C 619.16 574.676 619.062 572.795 618.95 571.019 C 618.837 569.244 618.697 567.627 618.529 566.169 C 618.361 564.712 618.155 563.507 617.913 562.554 C 617.893 562.424 617.913 562.312 617.968 562.217 C 618.024 562.124 618.094 562.059 618.178 562.021 C 618.263 561.984 618.347 561.984 618.431 562.021 C 618.514 562.059 618.584 562.152 618.641 562.301 L 618.641 563.283 C 618.828 562.685 619.225 562.204 619.832 561.838 C 620.44 561.475 621.136 561.228 621.921 561.096 C 622.705 560.966 623.523 560.942 624.373 561.027 C 625.223 561.109 625.99 561.292 626.672 561.572 C 627.354 561.853 627.9 562.231 628.312 562.709 C 628.723 563.184 628.872 563.75 628.76 564.403 C 628.685 564.89 628.47 565.305 628.115 565.65 C 627.76 565.997 627.331 566.282 626.826 566.506 C 626.322 566.731 625.765 566.898 625.159 567.011 C 624.55 567.122 623.962 567.183 623.392 567.193 C 622.822 567.203 622.294 567.161 621.808 567.067 C 621.323 566.973 620.948 566.833 620.688 566.646 C 620.725 566.852 620.948 567.239 621.359 567.81 C 621.771 568.379 622.341 569.132 623.07 570.066 C 623.798 571.001 624.667 572.103 625.676 573.374 C 626.686 574.645 627.797 576.074 629.013 577.662 C 628.975 577.793 628.901 577.925 628.788 578.055 C 628.677 578.186 628.488 578.177 628.228 578.026 L 619.313 565.973 Z " fill="rgb(0,0,0)"/><path d=" M 630.834 567.501 C 630.479 567.585 630.105 567.674 629.713 567.767 C 629.321 567.861 628.947 567.955 628.592 568.048 C 628.236 568.142 627.976 568.216 627.807 568.272 C 627.751 568.29 627.703 568.272 627.667 568.216 C 627.629 568.16 627.606 568.095 627.597 568.019 C 627.587 567.946 627.597 567.87 627.625 567.796 C 627.653 567.721 627.703 567.674 627.779 567.655 L 631.48 566.674 C 631.46 566.506 631.428 566.258 631.381 565.931 C 631.334 565.605 631.273 565.109 631.198 564.446 C 631.124 563.783 631.031 562.872 630.918 561.713 C 630.882 561.62 630.885 561.521 630.932 561.419 C 630.979 561.315 631.04 561.232 631.115 561.165 C 631.189 561.101 631.264 561.078 631.338 561.096 C 631.413 561.114 631.46 561.199 631.48 561.349 L 632.208 566.422 L 637.254 565.048 C 637.496 564.975 637.618 565.02 637.618 565.188 C 637.618 565.357 637.561 565.515 637.45 565.665 L 632.32 567.066 L 634.199 581.755 C 634.179 582.016 634.066 582.189 633.862 582.274 C 633.657 582.356 633.526 582.259 633.469 581.979 L 631.62 567.319 C 631.451 567.357 631.189 567.418 630.834 567.501 Z " fill="rgb(0,0,0)"/><path d=" M 645.494 567.711 C 645.232 567.582 645.092 567.449 645.075 567.319 C 645.054 567.189 645.158 567.02 645.382 566.815 C 645.401 566.778 645.416 566.586 645.424 566.241 C 645.433 565.894 645.438 565.507 645.438 565.076 C 645.438 564.647 645.442 564.222 645.453 563.801 C 645.462 563.382 645.485 563.077 645.523 562.89 C 645.654 562.274 645.91 561.82 646.293 561.531 C 646.676 561.24 647.129 561.059 647.654 560.984 C 648.176 560.91 648.746 560.904 649.362 560.97 C 649.979 561.036 650.595 561.115 651.212 561.208 C 651.344 561.228 651.437 561.277 651.493 561.363 C 651.548 561.446 651.578 561.531 651.578 561.613 C 651.578 561.7 651.545 561.768 651.479 561.825 C 651.414 561.881 651.324 561.909 651.212 561.909 C 650.839 561.891 650.386 561.82 649.854 561.7 C 649.321 561.577 648.797 561.516 648.284 561.516 C 647.77 561.516 647.317 561.624 646.925 561.838 C 646.532 562.053 646.279 562.479 646.167 563.114 C 646.074 563.694 646.042 564.274 646.069 564.852 C 646.097 565.432 646.12 566.049 646.139 566.702 L 649.84 565.918 C 650.026 565.918 650.152 565.945 650.218 566.002 C 650.283 566.058 650.311 566.128 650.301 566.211 C 650.293 566.297 650.259 566.376 650.204 566.449 C 650.148 566.525 650.091 566.562 650.035 566.562 L 646.196 567.402 C 646.308 569.291 646.415 570.935 646.518 572.336 C 646.619 573.738 646.723 574.943 646.826 575.953 C 646.929 576.962 647.031 577.793 647.135 578.448 C 647.237 579.102 647.348 579.62 647.471 580.002 C 647.592 580.386 647.718 580.657 647.849 580.816 C 647.98 580.975 648.129 581.064 648.297 581.083 C 648.522 581.101 648.746 581.045 648.97 580.914 C 649.195 580.784 649.414 580.619 649.63 580.424 C 649.844 580.226 650.035 580.022 650.204 579.807 C 650.371 579.592 650.513 579.41 650.625 579.26 C 650.681 579.167 650.76 579.2 650.863 579.359 C 650.966 579.517 650.971 579.681 650.875 579.848 C 650.764 580.055 650.591 580.279 650.358 580.521 C 650.125 580.765 649.872 580.988 649.601 581.194 C 649.33 581.401 649.05 581.568 648.761 581.699 C 648.47 581.83 648.204 581.886 647.96 581.867 C 647.663 581.754 647.395 581.494 647.162 581.083 C 646.929 580.672 646.713 579.961 646.518 578.952 C 646.322 577.942 646.144 576.541 645.986 574.747 C 645.826 572.953 645.662 570.608 645.494 567.711 Z " fill="rgb(0,0,0)"/><path d=" M 655.334 581.559 C 655.352 581.653 655.334 581.737 655.278 581.811 C 655.222 581.886 655.15 581.947 655.068 581.994 C 654.982 582.04 654.899 582.059 654.814 582.05 C 654.731 582.04 654.67 582.008 654.633 581.951 L 652.67 563.002 C 652.633 562.74 652.713 562.577 652.909 562.511 C 653.106 562.447 653.25 562.507 653.343 562.693 L 655.334 581.559 Z  M 652.363 561.293 C 652.455 561.031 652.643 560.882 652.923 560.844 C 653.071 560.844 653.189 560.882 653.273 560.956 C 653.357 561.031 653.381 561.124 653.343 561.236 C 653.287 561.498 653.11 561.629 652.812 561.629 C 652.678 561.647 652.567 561.624 652.475 561.558 C 652.381 561.492 652.343 561.404 652.363 561.293 Z " fill="rgb(0,0,0)"/><path d=" M 655.895 561.797 C 655.874 561.648 655.904 561.521 655.977 561.419 C 656.052 561.316 656.137 561.25 656.231 561.222 C 656.323 561.195 656.412 561.203 656.497 561.25 C 656.581 561.296 656.633 561.387 656.65 561.517 L 658.137 573.093 C 658.249 572.384 658.379 571.589 658.53 570.711 C 658.678 569.833 658.841 568.941 659.021 568.035 C 659.198 567.128 659.402 566.24 659.638 565.37 C 659.871 564.502 660.135 563.735 660.436 563.071 C 660.734 562.409 661.07 561.876 661.445 561.475 C 661.817 561.072 662.247 560.871 662.734 560.871 C 663.238 560.871 663.687 561.162 664.08 561.741 C 664.472 562.32 664.813 563.096 665.103 564.068 C 665.391 565.039 665.638 566.175 665.844 567.473 C 666.051 568.772 666.223 570.154 666.365 571.623 C 666.504 573.089 666.616 574.589 666.701 576.121 C 666.784 577.654 666.845 579.148 666.882 580.606 C 666.863 580.756 666.816 580.862 666.741 580.928 C 666.668 580.994 666.591 581.031 666.517 581.041 C 666.444 581.05 666.374 581.036 666.308 580.998 C 666.242 580.961 666.219 580.913 666.237 580.858 C 666.125 577.028 665.929 573.865 665.649 571.369 C 665.369 568.875 665.059 566.898 664.723 565.441 C 664.386 563.983 664.033 562.969 663.658 562.398 C 663.284 561.829 662.948 561.555 662.649 561.573 C 662.275 561.591 661.925 561.858 661.6 562.372 C 661.273 562.885 660.967 563.54 660.687 564.334 C 660.407 565.128 660.155 566.021 659.932 567.011 C 659.706 568.001 659.506 568.988 659.328 569.967 C 659.151 570.95 658.991 571.873 658.852 572.743 C 658.711 573.611 658.595 574.327 658.501 574.887 C 658.501 574.926 658.516 575.121 658.543 575.476 C 658.572 575.832 658.608 576.257 658.655 576.75 C 658.702 577.246 658.754 577.779 658.81 578.35 C 658.866 578.919 658.918 579.452 658.965 579.947 C 659.01 580.442 659.047 580.862 659.076 581.209 C 659.104 581.554 659.117 581.746 659.117 581.783 C 659.117 581.877 659.029 581.938 658.852 581.964 C 658.673 581.994 658.556 581.988 658.501 581.951 L 655.895 561.797 Z " fill="rgb(0,0,0)"/><path d=" M 670.666 582.259 C 670.572 582.24 670.506 582.188 670.471 582.105 C 670.433 582.021 670.433 581.933 670.471 581.839 C 670.506 581.746 670.583 581.666 670.695 581.601 C 670.807 581.535 670.946 581.53 671.115 581.587 C 671.395 581.661 671.718 581.713 672.08 581.74 C 672.447 581.769 672.821 581.764 673.202 581.727 C 673.586 581.69 673.96 581.611 674.324 581.489 C 674.689 581.367 675.007 581.189 675.277 580.955 C 675.548 580.722 675.754 580.437 675.893 580.101 C 676.035 579.764 676.077 579.364 676.021 578.895 C 675.908 577.98 675.624 577.218 675.164 576.612 C 674.707 576.004 674.167 575.452 673.539 574.957 C 672.913 574.462 672.249 573.986 671.55 573.529 C 670.847 573.07 670.2 572.552 669.6 571.972 C 669.002 571.393 668.497 570.71 668.087 569.926 C 667.676 569.141 667.452 568.16 667.414 566.982 C 667.396 566.292 667.488 565.609 667.694 564.936 C 667.901 564.263 668.19 563.647 668.565 563.086 C 668.937 562.526 669.377 562.053 669.881 561.67 C 670.386 561.287 670.908 561.05 671.451 560.955 C 671.993 560.862 672.545 560.928 673.106 561.152 C 673.666 561.377 674.198 561.825 674.703 562.497 C 674.741 562.61 674.741 562.709 674.703 562.791 C 674.664 562.876 674.609 562.937 674.534 562.974 C 674.461 563.012 674.384 563.026 674.31 563.015 C 674.235 563.006 674.188 562.965 674.171 562.89 C 673.758 562.311 673.319 561.923 672.852 561.726 C 672.386 561.531 671.929 561.484 671.48 561.587 C 671.031 561.689 670.596 561.913 670.174 562.26 C 669.755 562.605 669.386 563.026 669.069 563.52 C 668.751 564.015 668.497 564.568 668.311 565.175 C 668.125 565.781 668.04 566.394 668.06 567.011 C 668.078 568.075 668.297 568.973 668.717 569.701 C 669.139 570.43 669.657 571.075 670.273 571.636 C 670.89 572.196 671.558 572.711 672.278 573.177 C 672.998 573.645 673.675 574.145 674.31 574.677 C 674.945 575.21 675.487 575.813 675.936 576.485 C 676.384 577.158 676.647 577.971 676.72 578.924 C 676.776 579.635 676.651 580.245 676.341 580.76 C 676.035 581.274 675.599 581.67 675.039 581.95 C 674.478 582.232 673.819 582.399 673.063 582.456 C 672.305 582.512 671.506 582.445 670.666 582.259 Z " fill="rgb(0,0,0)"/><path d=" M 677.674 567.501 C 677.319 567.585 676.945 567.674 676.552 567.767 C 676.16 567.861 675.785 567.955 675.431 568.048 C 675.077 568.142 674.815 568.216 674.646 568.272 C 674.59 568.29 674.543 568.272 674.507 568.216 C 674.469 568.16 674.446 568.095 674.438 568.019 C 674.427 567.946 674.438 567.87 674.465 567.796 C 674.493 567.721 674.543 567.674 674.62 567.655 L 678.319 566.674 C 678.299 566.506 678.268 566.258 678.221 565.931 C 678.174 565.605 678.113 565.109 678.039 564.446 C 677.963 563.783 677.871 562.872 677.759 561.713 C 677.721 561.62 677.725 561.521 677.772 561.419 C 677.819 561.315 677.88 561.232 677.954 561.165 C 678.028 561.101 678.104 561.078 678.178 561.096 C 678.252 561.114 678.299 561.199 678.319 561.349 L 679.048 566.422 L 684.094 565.048 C 684.336 564.975 684.457 565.02 684.457 565.188 C 684.457 565.357 684.401 565.515 684.289 565.665 L 679.16 567.066 L 681.038 581.755 C 681.019 582.016 680.907 582.189 680.701 582.274 C 680.495 582.356 680.365 582.259 680.309 581.979 L 678.459 567.319 C 678.29 567.357 678.028 567.418 677.674 567.501 Z " fill="rgb(0,0,0)"/><path d=" M 692.952 565.273 C 692.97 564.899 692.956 564.47 692.909 563.983 C 692.862 563.498 692.77 563.049 692.629 562.638 C 692.49 562.228 692.293 561.895 692.041 561.643 C 691.787 561.39 691.465 561.292 691.072 561.348 C 690.606 561.405 690.209 561.675 689.881 562.161 C 689.554 562.648 689.283 563.227 689.07 563.899 C 688.855 564.572 688.686 565.297 688.566 566.072 C 688.442 566.847 688.354 567.562 688.298 568.215 C 688.26 568.627 688.256 569.197 688.286 569.926 C 688.312 570.654 688.373 571.43 688.467 572.252 C 689.232 572.179 689.891 571.86 690.442 571.299 C 690.994 570.739 691.451 570.089 691.817 569.351 C 692.18 568.613 692.456 567.866 692.642 567.108 C 692.829 566.352 692.931 565.74 692.952 565.273 Z  M 687.653 568.075 C 687.67 567.795 687.709 567.422 687.764 566.955 C 687.82 566.489 687.905 565.987 688.018 565.455 C 688.13 564.921 688.274 564.376 688.453 563.814 C 688.63 563.254 688.839 562.75 689.083 562.301 C 689.326 561.852 689.606 561.479 689.924 561.181 C 690.241 560.882 690.606 560.722 691.016 560.704 C 691.615 560.686 692.097 560.848 692.46 561.194 C 692.826 561.54 693.1 561.969 693.288 562.484 C 693.474 562.998 693.586 563.554 693.624 564.151 C 693.66 564.75 693.651 565.283 693.596 565.749 C 693.521 566.404 693.366 567.105 693.133 567.851 C 692.9 568.599 692.577 569.314 692.166 569.996 C 691.754 570.678 691.256 571.285 690.667 571.817 C 690.079 572.351 689.399 572.711 688.635 572.897 C 688.783 573.907 689.013 574.93 689.321 575.965 C 689.63 577.004 690.032 577.927 690.528 578.742 C 691.02 579.553 691.62 580.185 692.321 580.634 C 693.022 581.083 693.848 581.223 694.801 581.054 C 695.062 580.998 695.295 580.918 695.502 580.816 C 695.707 580.713 695.902 580.597 696.091 580.465 C 696.389 580.261 696.571 580.241 696.638 580.41 C 696.704 580.577 696.641 580.765 696.455 580.97 C 696.248 581.194 696.01 581.363 695.742 581.474 C 695.469 581.587 695.147 581.67 694.773 581.727 C 693.707 581.877 692.779 581.704 691.985 581.209 C 691.189 580.713 690.512 580.031 689.951 579.162 C 689.39 578.294 688.942 577.294 688.606 576.163 C 688.269 575.032 688.018 573.907 687.85 572.785 C 687.381 572.636 686.957 572.328 686.574 571.86 C 686.19 571.393 685.877 570.808 685.634 570.109 C 685.392 569.407 685.228 568.595 685.145 567.669 C 685.06 566.745 685.074 565.74 685.185 564.656 C 685.185 564.6 685.228 564.534 685.314 564.46 C 685.397 564.386 685.482 564.343 685.564 564.335 C 685.65 564.324 685.724 564.352 685.789 564.417 C 685.854 564.484 685.867 564.61 685.832 564.796 C 685.7 565.544 685.644 566.297 685.663 567.052 C 685.681 567.81 685.771 568.509 685.931 569.156 C 686.087 569.799 686.316 570.369 686.616 570.864 C 686.915 571.36 687.279 571.719 687.709 571.944 C 687.634 571.234 687.597 570.538 687.597 569.855 C 687.597 569.173 687.615 568.58 687.653 568.075 Z " fill="rgb(0,0,0)"/><path d=" M 700.491 581.559 C 700.509 581.653 700.491 581.737 700.435 581.811 C 700.378 581.886 700.309 581.947 700.227 581.994 C 700.141 582.04 700.058 582.059 699.973 582.05 C 699.89 582.04 699.827 582.008 699.792 581.951 L 697.829 563.002 C 697.79 562.74 697.872 562.577 698.067 562.511 C 698.264 562.447 698.408 562.507 698.502 562.693 L 700.491 581.559 Z  M 697.519 561.293 C 697.614 561.031 697.799 560.882 698.08 560.844 C 698.23 560.844 698.347 560.882 698.432 560.956 C 698.515 561.031 698.538 561.124 698.502 561.236 C 698.446 561.498 698.267 561.629 697.968 561.629 C 697.837 561.647 697.726 561.624 697.632 561.558 C 697.538 561.492 697.501 561.404 697.519 561.293 Z " fill="rgb(0,0,0)"/><path d=" M 701.051 561.797 C 701.033 561.648 701.061 561.521 701.136 561.419 C 701.211 561.316 701.294 561.25 701.388 561.222 C 701.482 561.195 701.569 561.203 701.654 561.25 C 701.738 561.296 701.79 561.387 701.809 561.517 L 703.294 573.093 C 703.406 572.384 703.536 571.589 703.686 570.711 C 703.837 569.833 704 568.941 704.178 568.035 C 704.355 567.128 704.561 566.24 704.794 565.37 C 705.027 564.502 705.294 563.735 705.592 563.071 C 705.891 562.409 706.227 561.876 706.602 561.475 C 706.976 561.072 707.404 560.871 707.891 560.871 C 708.395 560.871 708.844 561.162 709.237 561.741 C 709.629 562.32 709.97 563.096 710.26 564.068 C 710.55 565.039 710.797 566.175 711.004 567.473 C 711.208 568.772 711.38 570.154 711.521 571.623 C 711.66 573.089 711.773 574.589 711.858 576.121 C 711.94 577.654 712.001 579.148 712.039 580.606 C 712.022 580.756 711.975 580.862 711.9 580.928 C 711.824 580.994 711.75 581.031 711.676 581.041 C 711.601 581.05 711.531 581.036 711.465 580.998 C 711.401 580.961 711.376 580.913 711.396 580.858 C 711.284 577.028 711.086 573.865 710.806 571.369 C 710.526 568.875 710.218 566.898 709.882 565.441 C 709.545 563.983 709.189 562.969 708.817 562.398 C 708.442 561.829 708.107 561.555 707.808 561.573 C 707.434 561.591 707.084 561.858 706.757 562.372 C 706.429 562.885 706.126 563.54 705.846 564.334 C 705.566 565.128 705.312 566.021 705.088 567.011 C 704.863 568.001 704.663 568.988 704.484 569.967 C 704.308 570.95 704.148 571.873 704.009 572.743 C 703.868 573.611 703.752 574.327 703.659 574.887 C 703.659 574.926 703.673 575.121 703.7 575.476 C 703.729 575.832 703.767 576.257 703.812 576.75 C 703.859 577.246 703.91 577.779 703.967 578.35 C 704.023 578.919 704.074 579.452 704.122 579.947 C 704.169 580.442 704.204 580.862 704.233 581.209 C 704.26 581.554 704.277 581.746 704.277 581.783 C 704.277 581.877 704.186 581.938 704.009 581.964 C 703.832 581.994 703.715 581.988 703.659 581.951 L 701.051 561.797 Z " fill="rgb(0,0,0)"/><path d=" M 390.037 133.389 C 390.037 134.253 390.545 134.711 391.564 134.764 L 393.171 134.764 C 394.242 134.819 395.193 135.326 396.024 136.291 C 396.854 137.256 397.27 138.355 397.27 139.586 C 397.27 141.088 396.734 142.347 395.663 143.365 C 394.59 144.383 393.251 144.892 391.644 144.892 C 389.768 144.892 388.228 144.154 387.023 142.68 C 385.817 141.208 385.214 139.32 385.214 137.014 C 385.214 132.728 386.902 128.335 390.278 123.833 C 391.51 122.173 392.581 121.342 393.493 121.342 C 394.51 121.342 395.02 121.883 395.02 122.96 C 395.02 123.391 394.725 123.985 394.136 124.738 C 392.689 126.572 391.483 128.754 390.519 131.287 C 390.197 132.151 390.037 132.852 390.037 133.389 Z  M 375.409 133.389 C 375.409 134.253 375.918 134.711 376.936 134.764 L 378.544 134.764 C 379.669 134.819 380.646 135.326 381.477 136.291 C 382.307 137.256 382.723 138.355 382.723 139.586 C 382.723 141.088 382.187 142.347 381.116 143.365 C 380.043 144.383 378.704 144.892 377.097 144.892 C 375.221 144.892 373.681 144.154 372.476 142.68 C 371.27 141.208 370.667 139.32 370.667 137.014 C 370.667 132.728 372.355 128.335 375.731 123.833 C 376.963 122.173 378.034 121.342 378.946 121.342 C 379.963 121.342 380.473 121.883 380.473 122.96 C 380.473 123.391 380.178 123.985 379.589 124.738 C 378.516 126.087 377.552 127.65 376.695 129.428 C 375.838 131.207 375.409 132.528 375.409 133.389 Z " fill="rgb(0,0,0)"/><path d=" M 859.034 362.183 C 859.034 361.326 858.552 360.869 857.587 360.816 L 855.98 360.816 C 854.854 360.762 853.876 360.262 853.046 359.318 C 852.215 358.374 851.799 357.252 851.799 355.956 C 851.799 354.444 852.336 353.174 853.408 352.149 C 854.479 351.123 855.818 350.609 857.427 350.609 C 859.3 350.609 860.841 351.346 862.048 352.82 C 863.252 354.294 863.855 356.181 863.855 358.486 C 863.855 362.826 862.167 367.22 858.792 371.666 C 857.507 373.328 856.435 374.158 855.578 374.158 C 854.558 374.158 854.051 373.623 854.051 372.549 C 854.051 372.121 854.345 371.533 854.935 370.781 C 855.95 369.442 856.89 367.889 857.747 366.121 C 858.603 364.353 859.034 363.04 859.034 362.183 Z  M 844.487 362.183 C 844.487 361.326 843.976 360.869 842.96 360.816 L 841.352 360.816 C 840.28 360.762 839.329 360.262 838.499 359.318 C 837.668 358.374 837.252 357.252 837.252 355.956 C 837.252 354.444 837.789 353.174 838.861 352.149 C 839.932 351.123 841.271 350.609 842.88 350.609 C 844.7 350.609 846.214 351.346 847.42 352.82 C 848.625 354.294 849.228 356.181 849.228 358.486 C 849.228 362.878 847.566 367.274 844.245 371.666 C 843.012 373.328 841.941 374.158 841.031 374.158 C 839.957 374.158 839.424 373.623 839.424 372.549 C 839.424 372.121 839.718 371.533 840.307 370.781 C 841.379 369.442 842.343 367.889 843.2 366.121 C 844.056 364.353 844.487 363.04 844.487 362.183 Z " fill="rgb(0,0,0)"/><path d=" M 410.088 203.658 L 412.128 203.658 L 412.128 199.271 L 410.088 199.271 L 410.088 203.658 Z " fill="rgb(35,31,32)"/><path d=" M 410.088 210.192 L 412.128 210.192 L 412.128 205.805 L 410.088 205.805 L 410.088 210.192 Z " fill="rgb(35,31,32)"/><path d=" M 410.088 216.725 L 412.128 216.725 L 412.128 212.338 L 410.088 212.338 L 410.088 216.725 Z " fill="rgb(35,31,32)"/><path d=" M 410.088 223.259 L 412.128 223.259 L 412.128 218.874 L 410.088 218.874 L 410.088 223.259 Z " fill="rgb(35,31,32)"/><path d=" M 410.088 229.792 L 412.128 229.792 L 412.128 225.405 L 410.088 225.405 L 410.088 229.792 Z " fill="rgb(35,31,32)"/><path d=" M 410.088 236.327 L 412.128 236.327 L 412.128 231.939 L 410.088 231.939 L 410.088 236.327 Z " fill="rgb(35,31,32)"/><path d=" M 410.088 242.858 L 412.128 242.858 L 412.128 238.472 L 410.088 238.472 L 410.088 242.858 Z " fill="rgb(35,31,32)"/><path d=" M 418.272 200.385 L 420.189 200.385 L 420.189 198.663 L 418.272 198.663 L 418.272 200.385 Z " fill-rule="evenodd" fill="rgb(35,31,32)"/><path d=" M 414.832 200.385 L 416.749 200.385 L 416.749 198.663 L 414.832 198.663 L 414.832 200.385 Z " fill-rule="evenodd" fill="rgb(35,31,32)"/><path d=" M 411.403 200.385 L 413.32 200.385 L 413.32 198.663 L 411.403 198.663 L 411.403 200.385 Z " fill-rule="evenodd" fill="rgb(35,31,32)"/><path d=" M 418.272 243.465 L 420.189 243.465 L 420.189 241.742 L 418.272 241.742 L 418.272 243.465 Z " fill-rule="evenodd" fill="rgb(35,31,32)"/><path d=" M 414.832 243.465 L 416.749 243.465 L 416.749 241.742 L 414.832 241.742 L 414.832 243.465 Z " fill-rule="evenodd" fill="rgb(35,31,32)"/><path d=" M 411.403 243.465 L 413.32 243.465 L 413.32 241.742 L 411.403 241.742 L 411.403 243.465 Z " fill-rule="evenodd" fill="rgb(35,31,32)"/><path d=" M 503.004 239.471 L 500.964 239.471 L 500.964 243.858 L 503.004 243.858 L 503.004 239.471 Z " fill="rgb(35,31,32)"/><path d=" M 503.004 232.937 L 500.964 232.937 L 500.964 237.324 L 503.004 237.324 L 503.004 232.937 Z " fill="rgb(35,31,32)"/><path d=" M 503.004 226.404 L 500.964 226.404 L 500.964 230.791 L 503.004 230.791 L 503.004 226.404 Z " fill="rgb(35,31,32)"/><path d=" M 503.004 219.87 L 500.964 219.87 L 500.964 224.256 L 503.004 224.256 L 503.004 219.87 Z " fill="rgb(35,31,32)"/><path d=" M 503.004 213.337 L 500.964 213.337 L 500.964 217.724 L 503.004 217.724 L 503.004 213.337 Z " fill="rgb(35,31,32)"/><path d=" M 503.004 206.803 L 500.964 206.803 L 500.964 211.19 L 503.004 211.19 L 503.004 206.803 Z " fill="rgb(35,31,32)"/><path d=" M 503.004 200.271 L 500.964 200.271 L 500.964 204.657 L 503.004 204.657 L 503.004 200.271 Z " fill="rgb(35,31,32)"/><path d=" M 494.82 242.745 L 492.903 242.745 L 492.903 244.467 L 494.82 244.467 L 494.82 242.745 Z " fill-rule="evenodd" fill="rgb(35,31,32)"/><path d=" M 498.26 242.745 L 496.343 242.745 L 496.343 244.467 L 498.26 244.467 L 498.26 242.745 Z " fill-rule="evenodd" fill="rgb(35,31,32)"/><path d=" M 501.688 242.745 L 499.771 242.745 L 499.771 244.467 L 501.688 244.467 L 501.688 242.745 Z " fill-rule="evenodd" fill="rgb(35,31,32)"/><path d=" M 494.82 199.665 L 492.903 199.665 L 492.903 201.387 L 494.82 201.387 L 494.82 199.665 Z " fill-rule="evenodd" fill="rgb(35,31,32)"/><path d=" M 498.26 199.665 L 496.343 199.665 L 496.343 201.387 L 498.26 201.387 L 498.26 199.665 Z " fill-rule="evenodd" fill="rgb(35,31,32)"/><path d=" M 501.688 199.665 L 499.771 199.665 L 499.771 201.387 L 501.688 201.387 L 501.688 199.665 Z " fill-rule="evenodd" fill="rgb(35,31,32)"/><path d=" M 684.391 350.125 L 682.351 350.125 L 682.351 354.512 L 684.391 354.512 L 684.391 350.125 Z " fill="rgb(35,31,32)"/><path d=" M 684.391 343.591 L 682.351 343.591 L 682.351 347.978 L 684.391 347.978 L 684.391 343.591 Z " fill="rgb(35,31,32)"/><path d=" M 684.391 337.058 L 682.351 337.058 L 682.351 341.445 L 684.391 341.445 L 684.391 337.058 Z " fill="rgb(35,31,32)"/><path d=" M 684.391 330.524 L 682.351 330.524 L 682.351 334.91 L 684.391 334.91 L 684.391 330.524 Z " fill="rgb(35,31,32)"/><path d=" M 684.391 323.991 L 682.351 323.991 L 682.351 328.378 L 684.391 328.378 L 684.391 323.991 Z " fill="rgb(35,31,32)"/><path d=" M 684.391 317.457 L 682.351 317.457 L 682.351 321.844 L 684.391 321.844 L 684.391 317.457 Z " fill="rgb(35,31,32)"/><path d=" M 684.391 310.925 L 682.351 310.925 L 682.351 315.311 L 684.391 315.311 L 684.391 310.925 Z " fill="rgb(35,31,32)"/><path d=" M 676.207 353.399 L 674.288 353.399 L 674.288 355.121 L 676.207 355.121 L 676.207 353.399 Z " fill-rule="evenodd" fill="rgb(35,31,32)"/><path d=" M 679.647 353.399 L 677.728 353.399 L 677.728 355.121 L 679.647 355.121 L 679.647 353.399 Z " fill-rule="evenodd" fill="rgb(35,31,32)"/><path d=" M 683.076 353.399 L 681.158 353.399 L 681.158 355.121 L 683.076 355.121 L 683.076 353.399 Z " fill-rule="evenodd" fill="rgb(35,31,32)"/><path d=" M 676.207 310.319 L 674.288 310.319 L 674.288 312.041 L 676.207 312.041 L 676.207 310.319 Z " fill-rule="evenodd" fill="rgb(35,31,32)"/><path d=" M 679.647 310.319 L 677.728 310.319 L 677.728 312.041 L 679.647 312.041 L 679.647 310.319 Z " fill-rule="evenodd" fill="rgb(35,31,32)"/><path d=" M 683.076 310.319 L 681.158 310.319 L 681.158 312.041 L 683.076 312.041 L 683.076 310.319 Z " fill-rule="evenodd" fill="rgb(35,31,32)"/><path d=" M 411.236 314.673 L 413.276 314.673 L 413.276 310.286 L 411.236 310.286 L 411.236 314.673 Z " fill="rgb(35,31,32)"/><path d=" M 411.236 321.207 L 413.276 321.207 L 413.276 316.82 L 411.236 316.82 L 411.236 321.207 Z " fill="rgb(35,31,32)"/><path d=" M 411.236 327.74 L 413.276 327.74 L 413.276 323.353 L 411.236 323.353 L 411.236 327.74 Z " fill="rgb(35,31,32)"/><path d=" M 411.236 334.273 L 413.276 334.273 L 413.276 329.887 L 411.236 329.887 L 411.236 334.273 Z " fill="rgb(35,31,32)"/><path d=" M 411.236 340.806 L 413.276 340.806 L 413.276 336.419 L 411.236 336.419 L 411.236 340.806 Z " fill="rgb(35,31,32)"/><path d=" M 411.236 347.341 L 413.276 347.341 L 413.276 342.954 L 411.236 342.954 L 411.236 347.341 Z " fill="rgb(35,31,32)"/><path d=" M 411.236 353.873 L 413.276 353.873 L 413.276 349.487 L 411.236 349.487 L 411.236 353.873 Z " fill="rgb(35,31,32)"/><path d=" M 419.42 311.399 L 421.337 311.399 L 421.337 309.677 L 419.42 309.677 L 419.42 311.399 Z " fill-rule="evenodd" fill="rgb(35,31,32)"/><path d=" M 415.98 311.399 L 417.898 311.399 L 417.898 309.677 L 415.98 309.677 L 415.98 311.399 Z " fill-rule="evenodd" fill="rgb(35,31,32)"/><path d=" M 412.551 311.399 L 414.468 311.399 L 414.468 309.677 L 412.551 309.677 L 412.551 311.399 Z " fill-rule="evenodd" fill="rgb(35,31,32)"/><path d=" M 419.42 354.479 L 421.337 354.479 L 421.337 352.757 L 419.42 352.757 L 419.42 354.479 Z " fill-rule="evenodd" fill="rgb(35,31,32)"/><path d=" M 415.98 354.479 L 417.898 354.479 L 417.898 352.757 L 415.98 352.757 L 415.98 354.479 Z " fill-rule="evenodd" fill="rgb(35,31,32)"/><path d=" M 412.551 354.479 L 414.468 354.479 L 414.468 352.757 L 412.551 352.757 L 412.551 354.479 Z " fill-rule="evenodd" fill="rgb(35,31,32)"/></g></g></svg>